<svg xmlns="http://www.w3.org/2000/svg" width="65" height="65" fill="none"><rect width="64.857" height="64.857" y=".143" fill="#fff" fill-opacity=".3" rx="32.429"/><ellipse cx="32.428" cy="32.976" fill="#393535" rx="29.186" ry="28.78"/><path stroke="#fff" stroke-width="1.5" d="M32.321 23.033c-4.573 0-8 4.295-8 8.204 0 3.908 7.086 12.633 8 12.633.916 0 8-8.725 8-12.633 0-3.909-3.426-8.204-8-8.204Z"/><path fill="#fff" d="m27.837 30.53.984.879 1.865-1.758 1.865 1.758 1.865-1.758 1.866 1.758.932-.88-2.797-2.636-1.866 1.758-1.865-1.758-2.849 2.637ZM30.703 31.41l1.823 1.954 1.823-1.954.912.977-2.735 2.93-2.735-2.93.912-.977Z"/></svg>