<svg xmlns="http://www.w3.org/2000/svg" width="65" height="65" fill="none"><rect width="64.857" height="64.857" fill="#fff" fill-opacity=".3" rx="32.429"/><ellipse cx="32.428" cy="32.833" fill="#393535" rx="29.186" ry="28.78"/><path stroke="#fff" stroke-linecap="round" stroke-linejoin="round" stroke-width="1.5" d="m32.2 31.643-8.42-2.937m8.42 2.937 8.423-2.927M32.2 31.643v9.75m-6.483-2.107 5.477 1.874c.373.128.56.192.75.217.17.022.342.022.512 0 .19-.026.377-.09.75-.217l5.478-1.874c.726-.249 1.089-.373 1.357-.596.236-.196.42-.447.532-.729.127-.319.127-.692.127-1.438v-6.52c0-.745 0-1.119-.127-1.438a1.834 1.834 0 0 0-.532-.729c-.268-.223-.631-.347-1.357-.595l-5.478-1.875c-.373-.127-.56-.191-.75-.216a1.944 1.944 0 0 0-.511 0c-.192.025-.378.089-.75.216l-5.478 1.875c-.726.248-1.09.372-1.357.595-.237.197-.42.447-.532.73-.128.318-.128.692-.128 1.438v6.519c0 .746 0 1.12.128 1.438.112.282.295.533.532.73.268.222.63.346 1.357.595Z"/></svg>