<svg xmlns="http://www.w3.org/2000/svg" width="24" height="18" fill="none"><path fill="#009439" d="m15.617 9.45 7.693 6.706c.073-.24.113-.495.113-.759V2.645L15.617 9.45ZM11.71 10.24c.33 0 .654-.114.92-.345L22.853.983A2.596 2.596 0 0 0 20.818 0H2.602C1.777 0 1.043.384.566.983L10.79 9.895c.265.231.59.344.92.345ZM0 2.645v12.752c0 .264.04.519.113.759l7.693-6.707L0 2.645ZM13.7 11.121a3.022 3.022 0 0 1-3.978 0l-.68-.592-7.983 6.96c.432.32.964.511 1.543.511h18.217c.579 0 1.111-.191 1.544-.51l-7.984-6.96-.68.591Z"/></svg>