<svg xmlns="http://www.w3.org/2000/svg" width="25" height="20" fill="none"><path fill="#393535" fill-rule="evenodd" d="M9.93-.94h4.7c2.1 0 3.76 0 5.07.17 1.34.18 2.42.56 3.28 1.42.85.85 1.23 1.94 1.41 3.28.18 1.3.18 2.96.18 5.06v.13c0 2.1 0 3.77-.18 5.07-.18 1.34-.56 2.42-1.41 3.28-.86.85-1.94 1.23-3.28 1.41-1.31.18-2.97.18-5.07.18h-4.7c-2.1 0-3.76 0-5.06-.18-1.35-.18-2.43-.56-3.29-1.41-.85-.86-1.23-1.94-1.41-3.28C0 12.89 0 11.22 0 9.12v-.13c0-2.1 0-3.76.17-5.06C.35 2.59.73 1.5 1.58.65 2.44-.21 3.52-.59 4.87-.77c1.3-.17 2.96-.17 5.06-.17ZM5.09.93c-1.15.16-1.81.45-2.29.93-.49.48-.78 1.15-.93 2.3-.16 1.17-.16 2.72-.16 4.9s0 3.72.16 4.9c.15 1.15.44 1.81.93 2.29.48.49 1.14.78 2.29.93 1.18.16 2.73.16 4.91.16h4.57c2.18 0 3.72 0 4.9-.16 1.15-.15 1.81-.44 2.29-.93.49-.48.78-1.14.93-2.29.16-1.18.16-2.72.16-4.9s0-3.73-.16-4.9c-.15-1.15-.44-1.82-.93-2.3-.48-.48-1.14-.77-2.29-.93-1.18-.16-2.72-.16-4.9-.16H10c-2.18 0-3.73 0-4.91.16Zm-.32 3.01c.3-.37.84-.42 1.2-.11l2.47 2.05c1.07.89 1.81 1.51 2.43 1.91.61.39 1.02.52 1.41.52.39 0 .81-.13 1.41-.52.63-.4 1.37-1.02 2.43-1.91l2.47-2.05a.85.85 0 0 1 1.21.11c.3.36.25.9-.11 1.21l-2.51 2.09c-1.02.84-1.84 1.52-2.56 1.99-.76.49-1.49.79-2.34.79-.85 0-1.58-.3-2.34-.79-.72-.47-1.54-1.15-2.56-1.99L4.87 5.15a.857.857 0 0 1-.1-1.21Z"/><path fill="#FFF" fill-rule="evenodd" d="M9.93-.94h4.7c2.1 0 3.76 0 5.07.17 1.34.18 2.42.56 3.28 1.42.85.85 1.23 1.94 1.41 3.28.18 1.3.18 2.96.18 5.06v.13c0 2.1 0 3.77-.18 5.07-.18 1.34-.56 2.42-1.41 3.28-.86.85-1.94 1.23-3.28 1.41-1.31.18-2.97.18-5.07.18h-4.7c-2.1 0-3.76 0-5.06-.18-1.35-.18-2.43-.56-3.29-1.41-.85-.86-1.23-1.94-1.41-3.28C0 12.89 0 11.22 0 9.12v-.13c0-2.1 0-3.76.17-5.06C.35 2.59.73 1.5 1.58.65 2.44-.21 3.52-.59 4.87-.77c1.3-.17 2.96-.17 5.06-.17Zm0 .2h4.7q1.99 0 2.83.02 1.34.03 2.21.15 1.04.14 1.77.44.69.28 1.21.74.1.09.18.18l.18.18q.46.53.74 1.21.3.73.44 1.77.12.87.15 2.22.03.83.03 2.82v.13q0 1.99-.03 2.83-.03 1.35-.15 2.21-.14 1.04-.44 1.77-.28.69-.74 1.21-.09.1-.18.19-.08.08-.18.17-.52.46-1.21.74-.73.3-1.77.44-.87.12-2.21.15-.84.03-2.83.03h-4.7q-1.99 0-2.83-.03-1.34-.03-2.21-.15-1.04-.14-1.77-.44-.68-.28-1.21-.74-.09-.08-.18-.17-.09-.09-.18-.19-.46-.52-.74-1.21-.3-.73-.44-1.77-.12-.86-.15-2.21Q.2 11.11.2 9.12v-.13Q.2 7 .22 6.17q.03-1.35.15-2.22.14-1.04.44-1.77.28-.68.74-1.2.09-.1.18-.19l.18-.18q.53-.46 1.21-.74.73-.3 1.77-.44.87-.12 2.21-.15.84-.02 2.83-.02ZM3.62 1.09q-.57.23-.96.63-.4.4-.64.96-.23.58-.35 1.45-.11.81-.14 2.1-.02.82-.02 2.83 0 2 .02 2.83.03 1.29.14 2.1.12.87.35 1.44.24.57.64.97.39.4.96.63.57.23 1.45.35.8.11 2.09.14.83.02 2.84.02h4.57q2 0 2.83-.02 1.29-.03 2.1-.14.87-.12 1.44-.35.57-.23.97-.63.39-.4.63-.97.23-.57.35-1.44.11-.81.14-2.1.02-.83.02-2.83 0-2.01-.02-2.83-.03-1.29-.14-2.1-.12-.87-.35-1.45-.24-.56-.63-.96-.4-.4-.97-.63-.57-.24-1.44-.36-.81-.11-2.1-.14-.83-.02-2.83-.02H10q-2.01 0-2.84.02-1.29.03-2.09.14-.88.12-1.45.36ZM5.09.93c-1.15.16-1.81.45-2.29.93-.49.48-.78 1.15-.93 2.3-.16 1.17-.16 2.72-.16 4.9s0 3.72.16 4.9c.15 1.15.44 1.81.93 2.29.48.49 1.14.78 2.29.93 1.18.16 2.73.16 4.91.16h4.57c2.18 0 3.72 0 4.9-.16 1.15-.15 1.81-.44 2.29-.93.49-.48.78-1.14.93-2.29.16-1.18.16-2.72.16-4.9s0-3.73-.16-4.9c-.15-1.15-.44-1.82-.93-2.3-.48-.48-1.14-.77-2.29-.93-1.18-.16-2.72-.16-4.9-.16H10c-2.18 0-3.73 0-4.91.16Zm-.32 3.01c.3-.37.84-.42 1.2-.11l2.47 2.05c1.07.89 1.81 1.51 2.43 1.91.61.39 1.02.52 1.41.52.39 0 .81-.13 1.41-.52.63-.4 1.37-1.02 2.43-1.91l2.47-2.05a.85.85 0 0 1 1.21.11c.3.36.25.9-.11 1.21l-2.51 2.09c-1.02.84-1.84 1.52-2.56 1.99-.76.49-1.49.79-2.34.79-.85 0-1.58-.3-2.34-.79-.72-.47-1.54-1.15-2.56-1.99L4.87 5.15a.857.857 0 0 1-.1-1.21Zm.85-.08q.12.03.22.12l2.47 2.06q.98.81 1.39 1.13.63.51 1.06.79.46.29.83.42.35.13.69.13.34 0 .69-.13.37-.13.83-.42.43-.28 1.07-.79.41-.32 1.38-1.13l2.47-2.06q.1-.09.22-.12.12-.04.26-.03.13.01.24.07.12.06.2.17.09.1.13.22.03.12.02.26-.01.13-.07.24-.06.11-.16.2l-2.51 2.09q-.97.81-1.39 1.14-.67.53-1.15.84-.59.38-1.09.56-.54.19-1.07.2h-.14q-.53-.01-1.06-.2-.51-.18-1.1-.56-.48-.31-1.15-.84-.42-.33-1.39-1.14L5 4.99q-.1-.09-.16-.2-.06-.11-.07-.24-.01-.14.02-.26.04-.12.13-.22.09-.11.2-.17.11-.06.24-.07.14-.01.26.03Z"/></svg>