<svg xmlns="http://www.w3.org/2000/svg" width="111" height="111" fill="none"><path fill="#89D329" d="M110.803 51.972C109.052 23.066 84.963 0 55.474 0 25.984 0 1.896 23.066.144 51.972c0 1.168.147 2.335.293 3.503 1.167 9.636 4.817 18.54 10.365 25.986C20.875 95.184 37.08 104.09 55.474 104.09c-25.694 0-46.716-20-48.468-45.11-.146-1.168-.146-2.336-.146-3.504 0-1.168 0-2.335.146-3.503 1.752-25.11 22.774-45.11 48.468-45.11 18.394 0 34.6 8.905 44.672 22.628 5.548 7.445 9.198 16.35 10.365 25.985.146 1.168.292 2.336.292 3.358 0-1.168.146-2.336.146-3.504 0-1.022 0-2.19-.146-3.357Z"/><path fill="#00BCFF" d="M.146 58.979c1.752 28.906 25.84 51.972 55.33 51.972 29.489 0 53.577-23.066 55.329-51.972 0-1.168-.146-2.336-.292-3.504-1.168-9.635-4.818-18.54-10.365-25.986C90.075 15.768 73.87 6.861 55.475 6.861c25.694 0 46.717 20 48.468 45.11.146 1.169.146 2.336.146 3.504 0 1.168 0 2.336-.146 3.504-1.751 25.256-22.774 45.11-48.468 45.11-18.394 0-34.599-8.905-44.672-22.628C5.256 74.016 1.606 65.111.438 55.475.292 54.307.146 53.14.146 52.118.146 53.285 0 54.453 0 55.62c0 1.022 0 2.19.146 3.358Z"/><path fill="#10384F" d="M48.615 10.656v15.329h10.657c2.628 0 4.672-2.044 4.672-4.672 0-1.313-.584-2.482-1.46-3.357.584-.73 1.022-1.752 1.168-2.774 0-2.482-2.044-4.526-4.526-4.526h-10.51Zm3.504 3.212h6.423c.73 0 1.314.584 1.314 1.314 0 .73-.584 1.314-1.314 1.314H52.12v-2.628Zm0 5.84h6.57c.875 0 1.46.583 1.46 1.46 0 .875-.585 1.46-1.46 1.46h-6.57v-2.92ZM53.724 28.904l-7.591 15.33h3.942l1.167-2.629h8.614l1.168 2.628h3.941l-7.737-15.329h-3.504Zm1.752 3.942 2.628 5.548h-5.256l2.628-5.548ZM60.733 47.592h4.38l-7.738 9.927v5.401h-3.65V57.52l-7.737-9.927h4.38l5.255 7.007 5.11-7.007ZM85.842 47.592V62.92h3.65v-5.84h2.773l4.38 5.84h4.38l-4.526-5.986c1.898-.584 3.358-2.336 3.358-4.526 0-2.627-2.044-4.817-4.672-4.817h-9.343Zm3.796 3.212h5.255c.73 0 1.46.73 1.46 1.46s-.584 1.46-1.46 1.46h-5.255v-2.92ZM11.242 47.592V62.92H21.9c2.628 0 4.672-2.044 4.672-4.672 0-1.314-.584-2.482-1.46-3.358.584-.73 1.022-1.752 1.168-2.774 0-2.481-2.044-4.525-4.526-4.525h-10.51Zm3.504 3.212h6.423c.73 0 1.314.583 1.314 1.313s-.584 1.314-1.314 1.314h-6.423v-2.627Zm0 5.839h6.57c.875 0 1.46.584 1.46 1.46s-.585 1.46-1.46 1.46h-6.57v-2.92ZM36.351 47.592 28.76 62.92h3.942l1.167-2.628h8.614l1.168 2.628h3.941l-7.737-15.33H36.35Zm1.752 3.942 2.628 5.547h-5.256l2.628-5.547ZM81.025 47.592v3.295h-10.22v2.578h9.928v3.295h-9.927v2.866h10.22v3.295h-13.87V47.59h13.87ZM48.469 85.256v15.329h3.65v-5.84h2.773l4.38 5.84h4.38l-4.526-5.986c1.898-.584 3.358-2.336 3.358-4.525 0-2.628-2.044-4.818-4.672-4.818h-9.343Zm3.795 3.212h5.256c.73 0 1.46.73 1.46 1.46s-.584 1.46-1.46 1.46h-5.256v-2.92ZM62.484 66.244v3.295h-10.22v2.579h9.928v3.295h-9.927v2.865h10.22v3.295h-13.87V66.244h13.87Z"/></svg>