<svg xmlns="http://www.w3.org/2000/svg" width="169" height="98" fill="none"><g clip-path="url(#a)"><path fill="#A32428" d="M150.934 18.04h18.067V0h-18.067v18.04Z"/><path fill="#231F20" d="M47.33 86.118c-.672-.59-1.497-1.05-2.473-1.38-.979-.326-2.091-.49-3.34-.49h-5.385v13.501h5.304c1.25 0 2.37-.17 3.36-.51.992-.342 1.825-.813 2.503-1.419a6.1 6.1 0 0 0 1.557-2.15c.36-.828.537-1.732.537-2.71v-.038c0-.978-.176-1.875-.526-2.69a5.914 5.914 0 0 0-1.538-2.114Zm-1.886 4.901c0 1.092-.353 1.933-1.061 2.526-.706.59-1.641.887-2.802.887h-1.58v-6.867h1.58c1.16 0 2.096.299 2.802.898.708.597 1.06 1.436 1.06 2.517v.039Zm10.63-30.34H29.665c-2.496 0-4.815-.938-6.527-2.638-1.746-1.722-2.694-4.382-2.694-6.821v-1.73c0-2.4.942-4.659 2.657-6.354a9.084 9.084 0 0 1 6.43-2.645h26.543V22.509H34.028C24.718 22.569 0 23.216 0 50.6 0 77.983 24.82 78.13 34.16 78.195l21.914.006V60.679ZM3.375 97.75h3.889V84.248H3.375v13.501Zm20.955-6.364-5.756-7.137h-3.618v13.501h3.808v-7.407l5.978 7.407h3.397V84.248H24.33v7.136Zm40.131.462c0 .952-.231 1.653-.693 2.102-.46.45-1.08.675-1.86.675-.777 0-1.398-.233-1.86-.703-.46-.469-.692-1.194-.692-2.171v-7.502h-3.949v7.58c0 1.055.15 1.97.45 2.748.3.78.728 1.421 1.286 1.93.557.508 1.234.884 2.033 1.129.8.242 1.696.365 2.694.365.995 0 1.896-.123 2.702-.365.803-.245 1.49-.621 2.054-1.13.565-.508 1.003-1.159 1.316-1.948.312-.791.468-1.732.468-2.824v-7.485h-3.949v7.6Zm97.668-7.6h-3.869V97.75h10.631v-3.278h-6.762V84.248Zm-17.525-.097-5.943 13.6h4.068l.996-2.412h5.386l1.015 2.411h4.151l-5.945-13.599h-3.728Zm.257 8.296 1.576-3.838 1.557 3.838h-3.133Zm-15.367 5.303h3.888V84.248h-3.888v13.501Zm21.438-75.197v18.59h-24.09V22.509h-18.069v32.113c-2.962-3.833-19.732-23.536-21.402-25.472-1.667-1.933-4.271-4.485-6.68-5.422-2.404-.943-5.314-1.22-7.901-1.22H60.633v55.693H78.66V46.895c3.111 3.557 21.564 24.117 21.564 24.117 2.782 3.376 6.575 5.437 8.781 6.188 2.557.871 4.252 1.001 6.948 1.001h10.89V58.659h24.09v19.542h17.974v-55.65h-17.974ZM85.406 90.76c-.453-.32-1-.593-1.646-.818a17.42 17.42 0 0 0-2.163-.586c-.48-.104-.874-.203-1.188-.298a4.198 4.198 0 0 1-.736-.29c-.182-.096-.308-.201-.382-.318a.748.748 0 0 1-.108-.405v-.036c0-.245.115-.45.349-.617.234-.166.582-.25 1.048-.25.623 0 1.273.112 1.944.337a7.956 7.956 0 0 1 1.964.992l1.935-2.651a8.228 8.228 0 0 0-2.544-1.347c-.937-.305-2.005-.457-3.2-.457-.838 0-1.589.106-2.254.318-.664.212-1.233.51-1.706.896-.471.385-.83.839-1.075 1.366a4.03 4.03 0 0 0-.37 1.733v.039c0 .692.136 1.273.408 1.743.273.469.646.858 1.118 1.174.472.314 1.026.57 1.665.77.638.199 1.329.38 2.074.55.478.1.868.2 1.166.298.3.095.54.194.72.298.179.102.3.208.367.318.067.108.1.234.1.374v.04c0 .295-.136.522-.41.682-.272.16-.666.24-1.186.24-1.621 0-3.13-.538-4.527-1.62l-2.154 2.494a8.72 8.72 0 0 0 2.984 1.69c1.12.373 2.307.562 3.559.562.85 0 1.621-.1 2.314-.299.69-.199 1.282-.489 1.773-.867a4.006 4.006 0 0 0 1.148-1.376c.273-.538.409-1.154.409-1.849v-.039c0-.627-.121-1.17-.36-1.626a3.3 3.3 0 0 0-1.036-1.165Zm36.231.72c.52-.682.777-1.542.777-2.585v-.036c0-1.326-.411-2.375-1.236-3.145-.465-.463-1.069-.824-1.814-1.081-.745-.255-1.656-.385-2.732-.385h-6.602v13.501h3.869v-4.09h1.695l2.813 4.09h4.466l-3.33-4.706c.877-.359 1.577-.88 2.094-1.563Zm-3.111-2.351c0 .489-.18.876-.539 1.165-.357.29-.87.435-1.535.435h-2.553v-3.242h2.533c.652 0 1.163.135 1.535.396.373.264.559.666.559 1.207v.039Zm-26.32-1.603h4.187V97.75h3.869V87.526h4.189v-3.278H92.206v3.278Z"/></g><defs><clipPath id="a"><path fill="#fff" d="M0 0h169v98H0z"/></clipPath></defs></svg>