<svg xmlns="http://www.w3.org/2000/svg" width="282" height="102" fill="none"><g fill="#000" clip-path="url(#a)"><path d="M0 1.514v50.592h50.515V1.514H0Zm34.972 35.025H15.54V17.076h19.433v19.463ZM66.059 17.08h19.428V36.54H66.06V17.08ZM101.028 1.514h28.145c10.33 0 15.049 6.898 15.049 13.203 0 4.541-1.743 7.47-6.421 10.2 5.9 2.184 9.107 6.124 9.107 12.201 0 7.268-5.269 14.982-17.698 14.982h-28.194l.012-50.586ZM116.4 40.68h10.183c3.632 0 5.26-2.6 5.26-4.895 0 1.062.467-4.192-4.743-4.192h-10.7v9.087Zm.036-19.249h8.185c3.741 0 5.232-1.744 5.232-4.303 0-.59-.183-3.895-4.159-3.895h-9.258v8.198ZM162.914 1.514h16.272l18.534 50.524h-16.702l-2.445-7.569h-15.591L160.909 52h-16.575l18.58-50.485Zm7.475 15-4.296 16.873h9.184l-4.888-16.873ZM223.674 16.54h15.518C239.196 7.962 232.75 0 217.457 0c-16.775 0-21.969 9.272-21.969 16.059 0 10.942 13.371 13.851 13.786 13.981 1.997.63 10.296 2.857 12.366 3.599 1.796.642 3.514 2.082 3.514 4.005 0 2.95-3.514 4.374-6.439 4.374-1.878 0-8.189-.623-8.189-7.323h-16.03c0 8.897 6.112 18.855 23.261 18.855 18.922 0 22.881-11.304 22.881-17.316 0-4.906-2.774-10.348-9.178-12.939-3.854-1.558-10.239-2.923-13.446-3.86-1.617-.476-7.003-1.568-7.003-4.86 0-4.216 6.941-3.671 5.928-3.671 3.135 0 6.735 1.768 6.735 5.636ZM243.269 1.502H282v13.353h-23.255v8.9h20.737v12.76h-20.809V52.09h-15.48l.076-50.589ZM20.157 92.132l-.017-.063-4.842-18.227H12.26l-4.918 18.29h-.194l-.015-.065-4.289-18.225H.037l5.584 21.816h2.914l5.074-18.474h.188l.017.062 4.993 18.412h2.916l5.828-21.816h-2.746l-4.458 18.29h-.19ZM40.442 82.607a6.946 6.946 0 0 0-2.218-2.202c-.917-.573-2.085-.866-3.476-.866a7.203 7.203 0 0 0-2.964.61 7.028 7.028 0 0 0-2.34 1.7 7.9 7.9 0 0 0-1.535 2.587 9.542 9.542 0 0 0-.55 3.294c.031 1.13.21 2.25.534 3.332a7.267 7.267 0 0 0 1.415 2.618 6.403 6.403 0 0 0 2.323 1.702c.918.405 2.02.612 3.269.612 1.777 0 3.272-.454 4.44-1.34 1.144-.87 1.9-2.175 2.257-3.882H39.18c-.234 1.03-.712 1.81-1.417 2.324-.704.514-1.65.787-2.77.787-.872 0-1.637-.144-2.28-.436a4.524 4.524 0 0 1-1.596-1.18 4.588 4.588 0 0 1-.908-1.69 6.428 6.428 0 0 1-.251-2.013v-.083H41.86c.027-.99-.06-1.979-.261-2.948a8.848 8.848 0 0 0-1.158-2.93m-10.49 3.736.007-.09a5.621 5.621 0 0 1 .406-1.77 4.802 4.802 0 0 1 .944-1.451c.404-.42.89-.755 1.426-.983a4.635 4.635 0 0 1 1.865-.362 4.558 4.558 0 0 1 3.273 1.334c.415.418.744.913.97 1.457.237.565.377 1.165.416 1.777l.007.09-9.313-.002ZM60.218 93.886c-.833 0-1.56-.167-2.16-.503a4.247 4.247 0 0 1-1.472-1.332 5.932 5.932 0 0 1-.827-1.892 9.008 9.008 0 0 1-.263-2.176c-.001-.788.082-1.573.247-2.344.15-.717.43-1.4.828-2.016a4.338 4.338 0 0 1 1.55-1.411c.647-.353 1.457-.532 2.407-.532 1.123 0 2.03.285 2.7.851.65.55 1.09 1.332 1.305 2.321h2.542a6.137 6.137 0 0 0-.717-2.32 5.348 5.348 0 0 0-1.472-1.684 6.112 6.112 0 0 0-2.061-.99 9.566 9.566 0 0 0-2.515-.32c-1.232 0-2.326.22-3.253.656a6.479 6.479 0 0 0-2.322 1.793 7.726 7.726 0 0 0-1.385 2.677 11.751 11.751 0 0 0-.457 3.319c-.012 1.102.148 2.2.472 3.254a7.108 7.108 0 0 0 1.4 2.538 6.168 6.168 0 0 0 2.306 1.643c.916.384 1.988.576 3.18.576 1.997 0 3.597-.529 4.755-1.578 1.14-1.03 1.865-2.514 2.16-4.408h-2.51c-.175 1.212-.63 2.162-1.354 2.839-.743.688-1.779 1.038-3.084 1.038M75.16 80.388a7.191 7.191 0 0 0-2.42 2.83l-.022.044h-.086v-3.354H70.34v15.75h2.447v-6.994c-.014-.927.09-1.852.308-2.752a5.31 5.31 0 0 1 1.005-2.045 4.308 4.308 0 0 1 1.817-1.29c.724-.282 1.606-.427 2.623-.438v-2.602h-.179c-1.276 0-2.355.288-3.197.854M91.89 82.607a6.936 6.936 0 0 0-2.219-2.202c-.916-.573-2.085-.866-3.475-.866a7.193 7.193 0 0 0-2.963.61c-.89.4-1.686.98-2.34 1.704a7.902 7.902 0 0 0-1.536 2.583 9.542 9.542 0 0 0-.546 3.298c.03 1.13.21 2.25.532 3.332a7.278 7.278 0 0 0 1.416 2.618 6.401 6.401 0 0 0 2.323 1.702c.917.405 2.018.612 3.269.612 1.776 0 3.271-.454 4.44-1.34 1.143-.87 1.9-2.175 2.257-3.882h-2.42c-.236 1.032-.71 1.81-1.413 2.324-.703.514-1.651.787-2.772.787-.871 0-1.637-.144-2.279-.436a4.513 4.513 0 0 1-1.596-1.18 4.587 4.587 0 0 1-.908-1.69 6.458 6.458 0 0 1-.254-2.017v-.083h11.901c.029-.99-.059-1.98-.26-2.948a8.825 8.825 0 0 0-1.158-2.93M81.4 86.34l.006-.09a5.65 5.65 0 0 1 .407-1.77 4.76 4.76 0 0 1 .94-1.458c.405-.42.89-.755 1.427-.983a4.637 4.637 0 0 1 1.865-.362 4.552 4.552 0 0 1 1.83.362 4.52 4.52 0 0 1 2.409 2.43 5.55 5.55 0 0 1 .42 1.783l.007.09-9.31-.002ZM109.166 93.39c-.072-.288-.107-.738-.107-1.376v-8.185c0-.904-.173-1.646-.514-2.207a3.598 3.598 0 0 0-1.351-1.313 5.61 5.61 0 0 0-1.891-.622c-1.571-.227-3.191-.21-4.628.12a6.144 6.144 0 0 0-2.093.899 4.618 4.618 0 0 0-1.45 1.616c-.35.648-.553 1.446-.599 2.372h2.445c.078-1.153.49-1.955 1.236-2.377.745-.423 1.693-.641 2.809-.641.421 0 .841.032 1.257.093.408.056.804.184 1.167.379.354.196.651.481.861.828.222.362.335.845.335 1.433 0 .513-.154.915-.459 1.185-.348.292-.76.499-1.202.602a11.36 11.36 0 0 1-1.718.314c-.636.067-1.321.176-2.037.319-.671.122-1.333.278-1.977.462a5.425 5.425 0 0 0-1.693.807c-.498.36-.906.83-1.19 1.376-.3.559-.453 1.295-.453 2.177 0 .786.138 1.46.408 2.013.256.535.638.999 1.113 1.353.492.36 1.05.618 1.644.757.659.154 1.333.23 2.009.226a8.245 8.245 0 0 0 3.059-.56 6.23 6.23 0 0 0 2.472-1.838l.148-.182v.234c0 .833.196 1.44.573 1.801.377.36.907.545 1.557.545.755 0 1.359-.121 1.793-.363v-1.868a2.477 2.477 0 0 1-.716.122c-.455 0-.724-.163-.806-.491m-2.552-3.187c-.01.42-.106.835-.283 1.217a3.626 3.626 0 0 1-.883 1.199 4.763 4.763 0 0 1-1.532.908c-.623.236-1.374.358-2.245.358a5.387 5.387 0 0 1-1.171-.125 2.866 2.866 0 0 1-1.011-.412 2.284 2.284 0 0 1-.703-.75 2.239 2.239 0 0 1-.274-1.136c0-.67.156-1.212.464-1.604a2.95 2.95 0 0 1 1.187-.902 6.534 6.534 0 0 1 1.619-.455c.562-.088 1.157-.17 1.767-.246a19.894 19.894 0 0 0 1.668-.275c.452-.083.88-.262 1.257-.524l.135-.105.005 2.852ZM134.8 82.607a6.92 6.92 0 0 0-2.219-2.202c-.917-.573-2.087-.866-3.476-.866a7.19 7.19 0 0 0-2.963.61c-.89.399-1.687.98-2.34 1.704a7.88 7.88 0 0 0-1.536 2.583 9.576 9.576 0 0 0-.547 3.294c.028 1.13.207 2.25.532 3.332a7.267 7.267 0 0 0 1.413 2.622 6.454 6.454 0 0 0 2.322 1.702c.918.405 2.02.612 3.271.612 1.776 0 3.268-.454 4.436-1.34 1.142-.87 1.903-2.175 2.257-3.882h-2.412c-.236 1.03-.713 1.81-1.417 2.324-.705.514-1.649.787-2.771.787-.869 0-1.636-.144-2.28-.436a4.535 4.535 0 0 1-1.596-1.18 4.607 4.607 0 0 1-.908-1.69 6.447 6.447 0 0 1-.248-2.011v-.083h11.899a12.75 12.75 0 0 0-.263-2.949 8.878 8.878 0 0 0-1.155-2.929m-10.434 3.735.006-.09a5.472 5.472 0 0 1 .407-1.77c.219-.54.537-1.034.938-1.457.404-.42.89-.755 1.427-.983a4.64 4.64 0 0 1 1.865-.362 4.52 4.52 0 0 1 4.242 2.79 5.48 5.48 0 0 1 .423 1.783l.006.09h-9.314ZM154.61 93.886c-.83 0-1.557-.168-2.159-.503a4.253 4.253 0 0 1-1.472-1.332 5.915 5.915 0 0 1-.829-1.892 9.067 9.067 0 0 1-.261-2.176 10.86 10.86 0 0 1 .248-2.344 5.956 5.956 0 0 1 .824-2.013 4.363 4.363 0 0 1 1.552-1.414c.645-.353 1.455-.532 2.409-.532 1.119 0 2.029.285 2.697.851.655.55 1.093 1.332 1.306 2.321h2.544a6.175 6.175 0 0 0-.718-2.324 5.378 5.378 0 0 0-1.472-1.68 6.19 6.19 0 0 0-2.061-.99 9.58 9.58 0 0 0-2.515-.32c-1.231 0-2.327.22-3.252.656a6.443 6.443 0 0 0-2.321 1.793 7.69 7.69 0 0 0-1.386 2.677 11.785 11.785 0 0 0-.456 3.319c-.012 1.102.147 2.2.471 3.254a7.173 7.173 0 0 0 1.394 2.538 6.221 6.221 0 0 0 2.307 1.643c.919.384 1.989.576 3.178.576 2.003 0 3.602-.529 4.76-1.578 1.134-1.027 1.865-2.511 2.159-4.408h-2.502c-.173 1.212-.627 2.162-1.355 2.839-.738.688-1.777 1.038-3.085 1.038M176.643 81.143a4.2 4.2 0 0 0-1.658-1.18c-.687-.281-1.552-.426-2.581-.426-.486.003-.97.055-1.446.154a6.33 6.33 0 0 0-1.424.471 4.823 4.823 0 0 0-1.223.817c-.358.327-.728.737-.927 1.217l-.02.052h-.117v-8.406h-2.446v21.816h2.446v-8.905a6.547 6.547 0 0 1 .294-2.014c.187-.592.49-1.141.892-1.614a4.048 4.048 0 0 1 1.49-1.072c.594-.248 1.303-.373 2.109-.373 1.021 0 1.839.295 2.427.885.588.59.884 1.392.884 2.399v10.694h2.453V85.277a9.896 9.896 0 0 0-.259-2.339 4.367 4.367 0 0 0-.891-1.795M194.195 82.607a6.905 6.905 0 0 0-2.218-2.206c-.916-.573-2.086-.865-3.477-.865a7.195 7.195 0 0 0-2.964.609c-.889.4-1.686.98-2.339 1.704a7.952 7.952 0 0 0-1.536 2.587 9.528 9.528 0 0 0-.547 3.294c.029 1.13.207 2.25.531 3.332a7.29 7.29 0 0 0 1.417 2.618 6.434 6.434 0 0 0 2.321 1.702c.918.405 2.021.612 3.27.612 1.777 0 3.267-.454 4.438-1.34 1.142-.87 1.902-2.173 2.257-3.882h-2.411c-.234 1.03-.711 1.81-1.419 2.324-.707.514-1.65.787-2.768.787-.871 0-1.638-.144-2.28-.436a4.507 4.507 0 0 1-1.596-1.18 4.558 4.558 0 0 1-.907-1.69 6.33 6.33 0 0 1-.251-2.011v-.083h11.899c.027-.99-.061-1.98-.264-2.949a8.85 8.85 0 0 0-1.155-2.929m-10.49 3.736.008-.09a5.528 5.528 0 0 1 .406-1.77c.219-.54.537-1.035.938-1.458a4.37 4.37 0 0 1 1.427-.983 4.617 4.617 0 0 1 1.865-.362 4.546 4.546 0 0 1 4.244 2.79c.236.568.378 1.17.419 1.783l.008.09h-9.315ZM219.454 80.596a4.407 4.407 0 0 0-1.629-.8 8.272 8.272 0 0 0-2.146-.26 5.89 5.89 0 0 0-2.835.698 5.525 5.525 0 0 0-2.074 1.966l-.098.155-.059-.17c-.316-.96-.873-1.647-1.647-2.047a5.734 5.734 0 0 0-2.638-.606c-2.194 0-3.992.9-5.156 2.672l-.025.039h-.098v-2.337h-2.293v15.75h2.446v-9.83c.016-.402.095-.8.233-1.179a4.507 4.507 0 0 1 2.101-2.497c.55-.313 1.22-.471 1.992-.471.603 0 1.106.089 1.495.27.377.165.703.43.941.767.24.347.407.739.491 1.153.096.472.142.953.138 1.435v10.352h2.449v-9.83c0-1.246.378-2.26 1.128-3.011.751-.751 1.796-1.135 3.105-1.135.642 0 1.177.099 1.585.283.389.171.725.443.974.787.239.347.399.742.471 1.157.087.462.13.931.127 1.402v10.347h2.446V84.072c0-.806-.127-1.503-.377-2.078a3.661 3.661 0 0 0-1.047-1.398ZM227.604 76.877h-2.446v-3.035h2.446v3.035Zm0 3.03h-2.446v15.75h2.446v-15.75ZM242.229 94.962a4.66 4.66 0 0 0 1.539-1.513c.392-.618.588-1.411.588-2.359 0-.734-.146-1.362-.433-1.868a3.934 3.934 0 0 0-1.148-1.247 6.144 6.144 0 0 0-1.637-.807 18.608 18.608 0 0 0-1.915-.52c-.614-.144-1.227-.282-1.845-.417-.57-.12-1.129-.283-1.673-.491a3.927 3.927 0 0 1-1.239-.755 1.576 1.576 0 0 1-.503-1.189c-.016-.377.099-.749.325-1.052.222-.275.507-.493.829-.637a4.013 4.013 0 0 1 1.118-.334 6.622 6.622 0 0 1 2.492.049 4 4 0 0 1 1.178.452 2.7 2.7 0 0 1 .883.842c.233.376.372.803.407 1.244h2.446c-.068-.913-.27-1.684-.599-2.296a4.068 4.068 0 0 0-1.374-1.505 5.649 5.649 0 0 0-1.984-.787 12.56 12.56 0 0 0-2.475-.23 8.752 8.752 0 0 0-2.084.259 6.369 6.369 0 0 0-1.884.791 4.438 4.438 0 0 0-1.358 1.376c-.346.557-.523 1.238-.523 2.018 0 1.002.251 1.79.749 2.344A5.036 5.036 0 0 0 234 87.65c.803.329 1.638.575 2.49.735.891.171 1.735.368 2.511.59.69.177 1.347.466 1.945.856.534.366.806.906.806 1.609 0 .511-.13.937-.393 1.269-.253.33-.586.588-.969.75a4.872 4.872 0 0 1-1.267.345 8.511 8.511 0 0 1-2.87-.063 4.369 4.369 0 0 1-1.374-.52 2.91 2.91 0 0 1-1.001-.983 3.038 3.038 0 0 1-.408-1.424h-2.437c.046.933.251 1.732.601 2.386a4.537 4.537 0 0 0 1.45 1.634 6.137 6.137 0 0 0 2.092.893c1.511.353 3.221.368 4.898.047a6.467 6.467 0 0 0 2.16-.804M250.98 75.135h-2.448v4.771h-2.608v2.141h2.608v10.215c0 .726.072 1.321.214 1.76.109.39.33.74.635 1.006.329.258.718.427 1.13.491a9.08 9.08 0 0 0 1.721.138h1.915v-2.142h-1.115a9.631 9.631 0 0 1-1.01-.044 1.381 1.381 0 0 1-.637-.217.819.819 0 0 1-.324-.475 2.88 2.88 0 0 1-.081-.763v-9.969h3.262v-2.14h-3.262v-4.772ZM116.74 75.135h-2.454v4.771h-2.608v2.141h2.608v10.215c0 .726.073 1.321.214 1.76.11.39.331.74.636 1.006.329.258.718.427 1.13.491a9.07 9.07 0 0 0 1.72.138h1.915v-2.142h-1.116a9.62 9.62 0 0 1-1.009-.044 1.393 1.393 0 0 1-.639-.217.835.835 0 0 1-.322-.475 2.88 2.88 0 0 1-.079-.763v-9.969h3.261v-2.14h-3.261l.004-4.772ZM260.31 83.406l-.023.045h-.086v-3.545h-2.293v15.75h2.446v-6.809c-.012-.924.092-1.846.311-2.743a5.35 5.35 0 0 1 .999-2.049 4.353 4.353 0 0 1 1.817-1.29c.724-.284 1.607-.426 2.622-.436v-2.605c-1.354-.025-2.49.262-3.373.852a7.228 7.228 0 0 0-2.42 2.83ZM274.188 99.77c.343-.635.643-1.292.899-1.966l6.877-17.897h-2.584l-4.461 13.026h-.179l-.021-.06-4.623-12.967h-2.764l6.267 15.745-.012.029-1.08 2.677a3.159 3.159 0 0 1-.883 1.113c-.343.26-.796.388-1.345.388-.276 0-.55-.044-.812-.128-.216-.067-.429-.14-.641-.21v2.226c.266.093.54.159.819.196.302.04.607.059.911.059a4.542 4.542 0 0 0 1.508-.225 3.3 3.3 0 0 0 1.156-.721 5.36 5.36 0 0 0 .968-1.287"/></g><defs><clipPath id="a"><path fill="#fff" d="M0 0h282v102H0z"/></clipPath></defs></svg>