<svg xmlns="http://www.w3.org/2000/svg" width="172" height="115" fill="none"><g clip-path="url(#a)"><path fill="#247218" d="M87.786 0c13.378 0 27.008 2.898 39.817 9.128a86.005 86.005 0 0 1 6.585 33.045c0 10.91-2.039 21.996-6.562 32.989-12.858 6.26-26.442 9.13-39.837 9.13-13.388 0-26.966-2.87-39.838-9.13-4.523-10.992-6.556-22.078-6.556-32.989a85.931 85.931 0 0 1 6.582-33.045C60.787 2.898 74.42 0 87.789 0"/><path fill="#FCDF17" d="M50.754 72.54a82.162 82.162 0 0 1-5.787-30.367 82.122 82.122 0 0 1 5.807-30.425c11.129-5.245 23.797-8.185 37.01-8.185 13.217 0 25.893 2.94 37.013 8.184a82.136 82.136 0 0 1 5.809 30.426c0 10.697-2.041 20.941-5.785 30.366-11.127 5.252-23.808 8.195-37.037 8.195-13.223 0-25.903-2.943-37.03-8.195Z"/><path fill="url(#b)" d="M122.702 70.571c-2.338-3.872-5.48-6.998-5.514-7.028-.039-.02-.654-.211-.654-.211-6.668-2.061-11.038-3.61-12.97-4.617-2.658-1.389-5.451-4.76-5.759-5.139-3.117-.236-5.695-.185-8.176.117l-1.58.206c-3.013.391-6.124.805-9.173.312-2.03-.334-4-.984-6.09-1.668-3.218-1.06-6.515-2.148-10.282-2.142h-.151l.065.133c.856 1.675 4.237 6.755 8.471 8.151.935.226 1.61.476 1.903.707 0 .01 1.62 3.326 2.063 4.222-2.635-1.203-10.784-5.37-17.359-13.416v-.012c0-.107-.17-1.672-.205-2.014 3.915-1.47 12.731-2.321 13.725-2.416l.072-.007.031-.08c.527-4.664 1.625-8.396 3.683-12.483a.808.808 0 0 0 .095-.335.459.459 0 0 0-.05-.202c-.116-.22-.398-.263-.41-.263 0 0-5.692-1-6-1.053-.032-.101-.598-1.848-.647-1.994 4.324-1.617 9.656-3.131 12.708-3.797.516-.828.66-1.279.66-1.82 0-.46-.22-.85-.66-1.15-2.163-1.476-8.976-.588-15.869 2.07-.014-.028-.014-.034-.035-.064 1.431-1.076 3.989-2.676 5.886-3.562l.074-.042-.023-.071c-.514-1.753-3.88-3.094-4.259-3.231.007-.06.013-.1.02-.146 3.422-.235 5.693 1.375 6.386 2.523l.036.057.068-.023c.439-.142 1.985-.636 3.66-.835l.097-.005-.027-.102c-.55-2.949-3.349-4.917-4.302-5.51.026-.048.035-.066.062-.1 3.304.257 6.357 3.12 7.045 5.538l.019.066.068.006c.887.031 1.963.13 2.683.253l.074.011.027-.062c.269-.635.4-1.313.4-2.01 0-2.178-1.224-4.514-2.729-5.99.03-.042.043-.081.082-.117 4.34 1.657 5.445 4.803 5.445 7.732 0 2.05-.541 4.003-.89 5.247l-.146.516 6.824-.828c-.65.828-2.052 2.303-4.85 3.857 0-.015-2.885-.37-2.885-.37l-.076-.012-.025.074c-.194.599-1.882 5.964-1.89 9.907 0 1.461.41 2.596 1.222 3.378 1.446 1.399 3.841 1.476 5.515 1.41 7.115-.26 12.668.18 16.522 1.326l.228.062.035-.053c.24-.37.427-1.058.427-1.968 0-1.727-.687-4.302-2.999-7.215.025-.021.025-.036.054-.058.383.212 6.625 3.778 7.459 9.16-.146.057-2.991 1.224-2.991 1.224l.092.094c2.637 2.777 3.548 6.133 4.279 8.82.581 2.129 1.274 3.49 2.194 4.288 1.066.925 5.105 2.863 6.317 3.433 1.008 1.44 2.741 4.14 3.998 6.231v-.004a79.395 79.395 0 0 0 4.125-25.303 79.432 79.432 0 0 0-5.252-28.46c-10.756-4.883-22.798-7.48-34.89-7.48-12.095 0-24.123 2.596-34.882 7.48a79.357 79.357 0 0 0-5.255 28.46 79.536 79.536 0 0 0 5.234 28.41c10.76 4.893 22.803 7.477 34.903 7.477 12.106 0 24.148-2.584 34.906-7.476l.015-.013h-.002Z"/><path fill="#247218" d="M0 110.804s2.108.757 4.468.757c2.512 0 4.08-.345 4.957-1.234.726-.732 1.016-1.956.976-3.761V94.559h3.718v12.527c-.054 5.547-2.736 7.914-8.976 7.914-3.03 0-5.143-.481-5.143-.481v-3.715ZM25.838 111.716c-2.169 0-5.819-.675-5.819-5.18 0-3.23 2.122-5.084 5.82-5.084 3.696 0 5.812 1.854 5.812 5.084 0 4.505-3.639 5.18-5.813 5.18Zm-9.524-5.008c0 3.823 2.496 8.291 9.524 8.291 7.032 0 9.528-4.468 9.528-8.291 0-5.35-3.562-8.548-9.528-8.548-5.962 0-9.524 3.198-9.524 8.548ZM50.932 98.541v6.397h-9.657v-6.397h-3.71v16.082h3.71v-6.397h9.657v6.397h3.709V98.541h-3.709ZM107.694 111.331v-3.104h8.561v-3.289h-8.561v-3.104h11.067v-3.293h-14.777v16.082h14.777v-3.292h-11.067ZM90.726 94.54c7.108 0 11.358 3.814 11.358 10.186 0 4.571-2.976 9.898-11.358 9.898h-8.974V94.54H90.725Zm-5.249 3.32v13.451h5.249c2.847 0 7.624-.883 7.624-6.788 0-4.238-2.779-6.662-7.624-6.662h-5.249ZM149.185 105.458c.769 0 2.053-.244 2.053-1.834 0-1.14-.747-1.789-2.053-1.789h-6.781v3.614l6.781.009Zm6.337 9.167h-4.487l-4.474-5.886h-4.358v5.886h-3.711V98.543h10.491c3.612 0 5.764 1.931 5.764 5.161 0 1.936-1.074 4.112-3.889 4.791l4.664 6.13ZM71.023 114.623 61.37 103.66v10.963h-3.709V98.541h3.68l9.68 10.853V98.541h3.716v16.082h-3.715ZM124.949 111.333v-3.104h8.561v-3.289h-8.561v-3.104h11.068v-3.293H121.24v16.082h14.777v-3.292h-11.068ZM160.93 111.333v-3.104h8.561v-3.289h-8.561v-3.104h11.067v-3.293h-14.776v16.082h14.776v-3.292H160.93Z"/></g><defs><radialGradient id="b" cx="0" cy="0" r="1" gradientTransform="rotate(-92.055 62.199 -25.25) scale(42.8127 43.6391)" gradientUnits="userSpaceOnUse"><stop stop-color="#5AAD35"/><stop offset=".675" stop-color="#438E2F"/><stop offset="1" stop-color="#2C702A"/></radialGradient><clipPath id="a"><path fill="#fff" d="M0 0h172v115H0z"/></clipPath></defs></svg>