<svg xmlns="http://www.w3.org/2000/svg" width="222" height="97" fill="none"><path fill="#A6A098" d="M14.754 52.553h-.056a5.922 5.922 0 0 1-2.16 1.848 5.893 5.893 0 0 1-2.768.625c-5.498 0-8.672-3.105-8.672-8.683 0-6.35 4.073-11.872 10.669-11.872 4.57 0 8.29 2.142 8.29 6.953h-4.292c-.112-2.398-1.564-3.325-3.979-3.325-4.403 0-6.404 4.48-6.404 8.248 0 2.693 1.313 5.059 4.435 5.059 3.254 0 4.678-1.734 5.415-4.236H10.74l.684-3.197h8.283l-2.244 10.61h-2.705l-.004-2.03ZM24.855 34.938h14.926l-.752 3.624H28.412l-.875 4.196h9.821l-.712 3.352h-9.822l-1.01 4.796h10.784l-.767 3.624H20.75l4.105-19.593ZM43.106 34.937h9.332c3.528-.084 5.828 1.347 5.828 5.139a5.252 5.252 0 0 1-1.249 3.493 5.209 5.209 0 0 1-3.239 1.786v.056c1.612.523 2.025 1.898 2.025 3.464 0 .88-.135 2.198-.135 3.409-.036.77.056 1.541.27 2.282h-4.184a5.551 5.551 0 0 1-.195-1.32c0-1.318.223-2.664.223-3.995 0-1.894-1.146-2.362-2.82-2.362h-4.054l-1.611 7.669h-4.313l4.122-19.62Zm2.462 8.88h3.978c2.3 0 4.431-.912 4.431-3.11 0-2.118-1.503-2.417-3.182-2.417h-4.077l-1.15 5.526ZM62.889 34.938h5.931l1.512 14.213h.055l7.523-14.21h5.995l-4.13 19.625h-4.021l3.556-15.613h-.052l-8.262 15.613h-3.29l-1.89-15.613h-.051l-2.912 15.61H58.76l4.129-19.626ZM93.132 34.938h4.404l3.254 19.624h-4.269l-.632-4.368h-7.304l-2.462 4.368h-4.539l11.548-19.624ZM90.3 46.974h5.223l-.97-7.813h-.056L90.3 46.974ZM106.459 34.938h4.432l5.306 13.962h.056l2.785-13.962h3.938l-4.129 19.624h-4.281l-5.362-13.77h-.052l-2.784 13.77h-4.042l4.133-19.624ZM152.046 48.045c-.135 2.777 1.722 3.629 4.213 3.629 1.722 0 3.723-.824 3.723-2.774 0-1.95-2.546-2.31-4.957-3.053-2.41-.743-4.92-1.922-4.92-5.274 0-4.372 3.978-6.102 7.741-6.102 3.978 0 7.335 1.786 7.335 6.321h-4.073c.083-2.201-1.508-2.969-3.501-2.969-1.643 0-3.421.604-3.421 2.446 0 1.922 3.314 2.474 4.654 2.797 3.063.8 5.224 1.998 5.224 5.495 0 4.7-4.241 6.485-7.956 6.485-5.446 0-8.128-2.225-8.128-6.98l4.066-.02ZM169.562 34.938h14.914l-.74 3.628h-10.617l-.872 4.192h9.822l-.712 3.352h-9.826l-1.01 4.796h10.78l-.767 3.624h-15.077l4.105-19.593ZM187.808 34.938h14.918l-.736 3.628h-10.621l-.876 4.192h9.822l-.712 3.352h-9.822l-1.014 4.796h10.78l-.763 3.624h-15.077l4.101-19.593ZM206.096 34.938h7.057c5.474 0 8.29 2.797 8.29 7.64 0 6.841-3.775 11.988-11.301 11.988h-8.175l4.129-19.629Zm.931 15.984h3.313c4.376 0 6.811-3.465 6.811-7.617 0-2.829-1.194-4.755-4.269-4.755h-3.242l-2.613 12.372Z"/><path fill="#AA133E" d="M130.833 50.833c1.094-9.65 2.784-33.043 9.722-36.008-4.631 5.694-5.895 29.43-5.895 29.43s10.537-36.731 19.893-42.917c-7.956 12.96-20.037 53.24-20.037 53.24h-4.26s.31-1.371.577-3.745ZM85.193 57.742h4.376l3.23 19.473h-4.24l-.645-4.336h-7.232l-2.439 4.336h-4.51l11.46-19.473Zm-2.828 11.944h5.171l-.93-7.748h-.056l-4.185 7.748ZM98.38 57.742h4.292l-3.313 15.873h9.368l-.76 3.596h-13.66l4.073-19.469ZM113.958 57.742h4.292l-3.313 15.873h9.368l-.76 3.596h-13.66l4.073-19.469ZM129.564 57.742h4.288l-4.101 19.473h-4.288l4.101-19.473ZM142.968 57.742h4.376l3.23 19.473h-4.24l-.621-4.336h-7.252l-2.442 4.336h-4.507l11.456-19.473Zm-2.824 11.944h5.171l-.915-7.748h-.051l-4.205 7.748ZM156.187 57.742h4.396l5.271 13.855h.051l2.785-13.855h3.91l-4.101 19.473h-4.276L158.9 63.536h-.051l-2.785 13.667h-3.978l4.101-19.46ZM187.403 64.508c0-2.397-1.412-3.628-3.477-3.628-4.376 0-6.365 4.447-6.365 8.184 0 2.673 1.301 5.019 4.396 5.019a4.708 4.708 0 0 0 2.968-1.12 4.747 4.747 0 0 0 1.595-2.752h4.26c-1.734 5.426-4.67 7.472-8.879 7.472-5.454 0-8.604-3.085-8.604-8.62 0-6.301 4.045-11.784 10.589-11.784 4.507 0 7.849 2.51 7.769 7.23h-4.252ZM196.382 57.742h14.798l-.732 3.597h-10.533l-.868 4.195h9.746l-.704 3.33h-9.746l-1.006 4.77h10.713l-.76 3.597h-14.981l4.073-19.489ZM151.375 13.398s1.229-4.396 6.938-4.32c5.708.076 7.339-.619 7.339-.619s-6.46 12.628-14.277 4.94Z"/><path fill="#A6A098" d="M36.932 80.793h2.196l-6.826 7.12-1.058 5.116h-1.807l1.039-5.031-3.851-7.193h2.3l2.808 5.563 5.199-5.575ZM42.533 83.736c3.457 0 4.734 2.206 4.189 4.796-.545 2.589-2.69 4.795-6.166 4.795-3.477 0-4.754-2.218-4.189-4.8.565-2.58 2.673-4.79 6.166-4.79Zm-.29 1.439a4.007 4.007 0 0 0-2.648.919 4.04 4.04 0 0 0-1.406 2.434c-.358 1.626.219 3.352 2.673 3.352s3.715-1.726 4.07-3.352c.354-1.627-.203-3.357-2.69-3.357v.004ZM56.487 93.008h-1.703l.275-1.35h-.036a4.941 4.941 0 0 1-3.831 1.658c-2.144 0-3.56-.923-3.099-3.165l1.261-6.106h1.703l-1.194 5.766c-.27 1.319.374 2.07 2.216 2.07 1.551 0 3.135-.907 3.493-2.67l1.054-5.166h1.703l-1.842 8.963ZM61.006 84.045h1.703l-.343 1.642h.036c1.106-1.438 2.335-1.95 3.473-1.95.322-.013.644.022.955.104l-.398 1.846a3.566 3.566 0 0 0-1.158-.172c-1.686 0-3.067 1.011-3.476 2.942l-.935 4.551H59.16l1.846-8.963ZM73.62 84.046h1.703l-.255 1.246h.032c.851-.943 2.387-1.454 3.696-1.454 2.673 0 4.495 1.726 3.866 4.74a5.86 5.86 0 0 1-2.053 3.434 5.811 5.811 0 0 1-3.77 1.305c-1.345 0-2.606-.48-3.1-1.455h-.035l-.935 4.603h-1.703l2.554-12.42Zm4.65 1.23c-2.315 0-3.611 1.599-3.977 3.301-.426 2.07.628 3.3 2.621 3.3a3.879 3.879 0 0 0 2.595-.901 3.912 3.912 0 0 0 1.355-2.399c.37-1.71-.294-3.3-2.593-3.3ZM84.38 86.85c.7-2.242 2.387-3.114 5.076-3.114 1.822 0 4.038.444 3.58 2.55l-.99 4.823c-.12.512.084.771.597.771.206.003.412-.02.612-.068l-.238 1.2a9.25 9.25 0 0 1-1.36.103c-.868 0-1.365-.24-1.278-1.25-.867.922-2.641 1.454-4.085 1.454-2.964 0-3.338-1.539-3.067-2.701.322-1.659 1.5-2.466 4.376-2.798l1.989-.203c.97-.084 1.59-.276 1.77-1.08.274-1.23-.903-1.47-2.264-1.47-1.428 0-2.808.4-3.134 1.778l-1.584.004Zm6.628 1.462c-.322.291-.796.4-1.77.531l-1.99.24c-1.364.188-2.128.511-2.335 1.47-.186.84.546 1.42 1.79 1.42 1.906 0 3.748-1.012 4.07-2.514l.235-1.147ZM96.144 84.045h1.715l-.342 1.642h.036c1.106-1.438 2.335-1.95 3.472-1.95.322-.013.644.022.955.104l-.398 1.846a3.566 3.566 0 0 0-1.157-.172c-1.687 0-3.067 1.011-3.477 2.942l-.935 4.551H94.31l1.834-8.963ZM104.812 81.291h1.703l-.581 2.753h2.554l-.275 1.335h-2.553l-1.142 5.526c-.155.736.306.975 1.193.975.401-.007.8-.047 1.194-.12l-.307 1.44a9.837 9.837 0 0 1-1.925.12c-1.687 0-2.18-.824-1.909-2.123l1.193-5.818h-1.838l.271-1.335h1.834l.588-2.753ZM110.31 84.044h1.703l-.271 1.35h.04a4.934 4.934 0 0 1 3.831-1.657c2.144 0 3.56.923 3.099 3.164l-1.261 6.106h-1.691l1.193-5.766c.271-1.319-.373-2.07-2.215-2.07-1.552 0-3.135.907-3.493 2.67l-1.054 5.166h-1.703l1.822-8.963ZM121.444 89.04c-.271 1.866 1.193 2.84 2.693 2.84a3.785 3.785 0 0 0 3.218-1.598h1.806a6.225 6.225 0 0 1-2.222 2.196 6.185 6.185 0 0 1-3.005.833c-3.473 0-4.734-2.206-4.189-4.795.545-2.59 2.673-4.795 6.166-4.795 2.351 0 4.563 1.366 3.779 5.083l-.036.224-8.21.011Zm6.675-1.335c.087-1.627-1.007-2.534-2.59-2.534a4.005 4.005 0 0 0-2.271.683 4.035 4.035 0 0 0-1.492 1.85h6.353ZM132.504 84.045h1.703l-.343 1.642h.036c1.106-1.438 2.335-1.95 3.473-1.95.322-.013.644.022.955.104l-.398 1.846a3.568 3.568 0 0 0-1.158-.172c-1.686 0-3.067 1.011-3.472 2.942l-.939 4.551h-1.703l1.846-8.963ZM145.121 84.044h1.703l-1.842 8.963h-1.703l1.842-8.963Zm.696-3.353h1.703l-.398 1.882h-1.703l.398-1.882ZM149.123 84.044h1.703l-.271 1.35h.036a4.937 4.937 0 0 1 3.831-1.657c2.144 0 3.56.922 3.099 3.164l-1.261 6.106h-1.703l1.193-5.766c.275-1.319-.374-2.07-2.215-2.07-1.552 0-3.135.907-3.493 2.67l-1.058 5.166h-1.703l1.842-8.963ZM165.792 90.186c-.171.8.27 1.799 2.434 1.799s2.88-.772 3.015-1.403c.136-.631-.119-1.011-1.432-1.199l-2.74-.375c-1.246-.188-2.196-.975-1.926-2.398.398-1.83 2.148-2.893 4.666-2.893 2.948 0 3.935 1.267 3.748 3.013h-1.707c.135-.907-.561-1.678-2.335-1.678-1.09 0-2.419.323-2.641 1.366-.12.6.083.96 1.261 1.111l2.351.324c2.18.323 2.88 1.13 2.621 2.397-.398 2.086-2.387 3.061-5.108 3.061-2.044 0-4.276-.531-3.918-3.133l1.711.008ZM176.424 89.04c-.27 1.866 1.194 2.84 2.689 2.84a3.783 3.783 0 0 0 3.218-1.598h1.807a6.236 6.236 0 0 1-2.223 2.195 6.19 6.19 0 0 1-3.005.834c-3.472 0-4.733-2.206-4.188-4.795.545-2.59 2.673-4.795 6.165-4.795 2.351 0 4.563 1.366 3.784 5.083l-.036.224-8.211.011Zm6.675-1.335c.088-1.627-1.002-2.534-2.589-2.534a4.003 4.003 0 0 0-2.271.683 4.031 4.031 0 0 0-1.493 1.85h6.353ZM187.407 89.04c-.271 1.866 1.193 2.84 2.693 2.84a3.785 3.785 0 0 0 3.218-1.598h1.806a6.22 6.22 0 0 1-2.223 2.195 6.184 6.184 0 0 1-3.004.834c-3.473 0-4.734-2.206-4.189-4.795.545-2.59 2.673-4.795 6.166-4.795 2.351 0 4.563 1.366 3.779 5.083l-.036.224-8.21.011Zm6.675-1.335c.083-1.627-1.007-2.534-2.59-2.534a4.005 4.005 0 0 0-2.271.683 4.035 4.035 0 0 0-1.492 1.85h6.353ZM204.265 91.86h-.036c-.851.944-2.351 1.455-3.679 1.455-2.658 0-4.515-1.73-3.883-4.74a5.89 5.89 0 0 1 2.067-3.433 5.841 5.841 0 0 1 3.777-1.306c1.328 0 2.59.496 3.083 1.455h.036l.954-4.603h1.703l-2.538 12.32h-1.703l.219-1.148Zm-3.182 0c2.335 0 3.612-1.598 3.978-3.3.425-2.07-.629-3.301-2.622-3.301a3.878 3.878 0 0 0-2.594.902 3.915 3.915 0 0 0-1.356 2.399c-.386 1.73.29 3.32 2.574 3.32l.02-.02ZM209.784 90.186c-.171.8.27 1.799 2.434 1.799s2.88-.772 3.016-1.403c.135-.631-.12-1.011-1.433-1.199l-2.74-.375c-1.245-.188-2.196-.975-1.926-2.398.398-1.83 2.144-2.893 4.666-2.893 2.948 0 3.935 1.267 3.748 3.013h-1.703c.135-.907-.561-1.678-2.335-1.678-1.09 0-2.419.323-2.641 1.366-.12.6.083.96 1.261 1.111l2.351.324c2.18.323 2.88 1.13 2.621 2.397-.398 2.086-2.387 3.061-5.108 3.061-2.044 0-4.276-.531-3.918-3.133l1.707.008Z"/></svg>