<svg xmlns="http://www.w3.org/2000/svg" width="152" height="100" fill="none"><path fill="url(#a)" d="M37.182 2.568C26.93 4.379 17.14 9.186 9.831 22.166 7.127 26.968.99 39.676 2.41 53.84c.74 7.38 4.1 13.042 6.738 17.305 3.152 5.092 7.35 9.826 10.58 13.113 6.462 6.578 15.508 13.258 23.828 14.138 3.614.383 7.822.206 12.104-1.176 5.957-1.923 12.178-5.948 18.186-11.667 6.456-6.143 8.896-9.742 11.932-13.072 4.78-5.244 7.514-8.028 11.466-12.18 5.892-6.19 5.702-16.829.987-25.271-5.338-9.56-11.37-14.119-11.37-14.119S76.751 10.41 62.448 5.192c-8.9-3.25-18.452-3.828-25.267-2.624Z" opacity=".5"/><path fill="url(#b)" d="M74.22 89.733c-2.486 1.924-8.44 5.285-15.81 6.458a81.77 81.77 0 0 0 2.273-.02c2.479-.053 5.137.22 8.061.13 8.132-.244 10.474-5.074 15.099-11.438 2.811-3.867 4.622-7.63 6.134-12.287a61.758 61.758 0 0 0 1.752-6.5c-.43.456-.87.92-1.321 1.4-3.74 9.786-9.588 17.147-16.188 22.257Z" opacity=".5"/><path fill="#FFB770" d="M34.319 92.543c-9.092-3.992-11.084-5.075-18.87-12.94-.075-.076-.15-.156-.228-.234 2.483 4.768 4.825 9.396 9.723 11.668 1.42.657 3.006 1.16 4.66 1.543 2.388.549 4.915.84 7.272.947a32.662 32.662 0 0 1-2.557-.984Z" opacity=".7"/><path fill="#FFE92C" d="M92.804 59.463c-.136.707-.28 1.349-.427 1.904a60.693 60.693 0 0 1-1.969 6.113c.45-.48.89-.945 1.322-1.401.252-1.195.487-2.488.696-3.906.138-.927.263-1.83.378-2.71Z" opacity=".5"/><path fill="url(#c)" d="M62.45 5.19c-3.533-1.29-7.17-2.157-10.695-2.661-5.358-.765-10.461-.687-14.573.039-3.32.586-6.593 1.487-9.747 2.879-4.578 3.666-8.801 8.803-12.223 14.447C10.473 27.71 6.06 38.478 4.807 44.25c-.716 3.298-1.108 9.86.2 12.452.026.054.057.104.083.158-.75-6.404.05-13.392 3.514-20.231a30.738 30.738 0 0 1 2.367-5.607c2.145-3.914 5.461-7.688 10.075-10.8 3.299-3.202 6.867-5.836 11.143-8.192 6.724-5.279 13.145-7.937 17.21-8.382 1.54-.169 3.07-.19 4.576-.08 2.43.179 4.81.706 7.12 1.528a31.83 31.83 0 0 1 2.093.371c-.244-.097-.49-.188-.737-.278Z" opacity=".5"/><path fill="#E94665" d="M53.976 3.566a25.16 25.16 0 0 0-4.577.08c-4.064.445-10.485 3.106-17.21 8.382 2.05-1.13 4.265-2.196 6.688-3.23 6.505-2.772 12.193-4.004 17.391-4.032a32.736 32.736 0 0 1 4.83.328c-2.312-.821-4.692-1.349-7.122-1.528Z"/><path fill="#E94978" d="M21.048 20.223c-4.614 3.112-7.93 6.886-10.075 10.8a30.826 30.826 0 0 0-2.368 5.607 36.866 36.866 0 0 1 2.52-4.245c3.345-4.885 6.488-8.832 9.923-12.162Z"/><path fill="url(#d)" d="M93.466 38.64a45.545 45.545 0 0 0-.586-4.003c-1.109-5.678-3.038-9.467-4.412-11.6-.929-1.442-1.604-2.127-1.604-2.127s-.211-.218-.612-.607C83.912 18.04 75.062 9.99 63.189 5.464a32.734 32.734 0 0 0-6.923-.7c-5.198.028-10.886 1.26-17.39 4.033a73.913 73.913 0 0 0-6.689 3.23 62.042 62.042 0 0 0-5.804 5.187l-.15.153c-5.32 5.421-9.616 11.49-12.775 17.166-3.4 6.11-5.496 11.955-6.265 17.536-.19 1.381-.3 2.75-.328 4.098-.028 1.381.052 2.73.228 4.066.66 4.965 2.7 9.72 5.878 15.028.789 1.319 1.505 2.678 2.207 4.027l.272.318c7.788 7.863 9.78 8.948 18.87 12.94.778.342 1.638.67 2.557.984 6.476 2.198 15.952 3.553 21.53 2.665h.004c7.37-1.174 13.325-4.533 15.81-6.458 6.6-5.11 12.447-12.472 16.188-22.255a60.512 60.512 0 0 0 1.968-6.112c.147-.556.291-1.198.427-1.904 1.216-9.381 1.151-16.114.662-20.826Z" opacity=".7"/><path fill="#FFE1B1" d="M77.471 11.666c-4.636-2.953-9.275-5.144-14.282-6.2 11.872 4.527 20.724 12.576 23.063 14.839.401.39.613.607.613.607s-2.57-4.9-9.394-9.246Z" opacity=".5"/><path fill="#FF923A" d="M47.597 92.66a39.086 39.086 0 0 1-5.095.778c5.36 1.8 9.424 2.715 15.907 2.754 3.588-1.522 7.247-3.768 10.87-6.649-2.32 1.133-4.829 2.09-7.539 2.92-5.138 1.57-9.752 1.474-14.143.197Z"/><path fill="url(#e)" d="M93.467 38.64a45.51 45.51 0 0 0-.587-4.004c-1.108-5.678-3.038-9.467-4.411-11.6-.93-1.442-1.604-2.127-1.604-2.127s-.211-.218-.612-.607c-.966-.908-3.01-2.637-5.628-3.791-1.317-.582-2.893-1.085-4.86-1.59.279.284.555.572.826.863 7.122 7.606 13.312 15.63 15.172 27.669.492 3.18-.245 6.988-1.17 10.219 1.843 5.188 1.416 6.156.405 9.54-.416 1.397-1.634 3.212-3.795 5.166a49.746 49.746 0 0 1-1.832 4.559c.136-.154.273-.305.412-.458a404.694 404.694 0 0 1 4.626-5 60.548 60.548 0 0 0 1.969-6.112c.146-.556.29-1.198.427-1.904 1.216-9.379 1.151-16.112.662-20.824Z" opacity=".5"/><path fill="#FFC93D" d="M90.592 53.67v.021c-.025 2.787-1.472 9.171-3.389 14.683v.002c2.16-1.956 3.376-3.77 3.795-5.166 1.01-3.386 1.438-4.353-.406-9.54Z"/><path fill="#F95700" d="M26.385 17.215a62.042 62.042 0 0 1 5.804-5.188c-4.275 2.356-7.843 4.993-11.142 8.192a38.682 38.682 0 0 1 4.976-2.836l.362-.168Z"/><path fill="#F1838C" d="M15.178 79.287c-.703-1.349-1.42-2.708-2.208-4.027-3.178-5.308-5.218-10.063-5.878-15.028a26.731 26.731 0 0 1-.228-4.066c.026-1.35.136-2.717.328-4.098-.574-5.436-.059-10.738 1.412-15.441-3.465 6.839-4.263 13.825-3.515 20.231.818 6.992 3.482 13.293 6.538 17.949 1.166 1.778 2.39 3.317 3.591 4.562-.012-.028-.027-.056-.04-.082Z"/><path fill="url(#f)" d="M15.459 73.196a43.526 43.526 0 0 1-5.009-8.708 42.933 42.933 0 0 1-3.257-12.42c-.19 1.382-.3 2.75-.328 4.098-.028 1.382.052 2.73.228 4.066.66 4.965 2.7 9.72 5.878 15.028.789 1.319 1.505 2.678 2.207 4.027l.272.318c7.788 7.863 9.78 8.948 18.87 12.94.778.342 1.638.67 2.557.984 2.078.095 4.025.047 5.625-.089-6.05-2.034-16.947-6.607-27.043-20.244Z"/><path fill="url(#g)" d="M61.095 5.095a32.736 32.736 0 0 0-4.83-.329c-5.198.028-10.885 1.26-17.39 4.033a73.89 73.89 0 0 0-6.688 3.23 62.026 62.026 0 0 0-5.804 5.187c8.027-3.748 19.499-6.249 27.17-6.11 3.596.064 8.659.95 14.379 2.098 1.153.232 2.225.45 3.223.662 1.746.37 3.268.713 4.607 1.057C71.427 10.493 66.45 7 61.095 5.095Z"/><path fill="#ED504D" d="M7.192 52.068c.768-5.58 2.865-11.425 6.265-17.536 3.159-5.676 7.456-11.745 12.775-17.164.05-.052.101-.101.15-.153l-.361.168a38.855 38.855 0 0 0-4.977 2.836c-3.434 3.333-6.578 7.278-9.922 12.16a37.893 37.893 0 0 0-2.52 4.245c-1.468 4.706-1.984 10.01-1.41 15.444Z"/><path fill="url(#h)" d="M87.202 68.379c-1.518 3.395-4.03 6.685-8.501 9.53-2.859 1.82-5.862 3.047-8.769 3.892a53.908 53.908 0 0 1-2.384 1.695c-6.145 4.124-12.783 7.59-19.954 9.167 4.394 1.277 9.005 1.372 14.143-.2 2.708-.827 5.22-1.785 7.54-2.92C76.344 86.09 81.64 81 85.37 72.938a49.971 49.971 0 0 0 1.832-4.558Z"/><path fill="url(#i)" d="M90.592 53.691v-.021c-1.29 4.506-3.405 8.507-7.102 13.6-1.787 2.462-3.555 4.787-5.496 7.005 4.066-1.926 7.091-3.98 9.209-5.897v-.002c1.918-5.511 3.363-11.898 3.389-14.685Z"/><path fill="url(#j)" d="M42.502 93.44a39.086 39.086 0 0 0 5.094-.779c7.172-1.576 13.81-5.043 19.955-9.166a55.003 55.003 0 0 0 2.384-1.695c3.159-2.378 5.735-4.872 8.062-7.526 1.457-1.662 2.815-3.387 4.156-5.183.447-.599.893-1.206 1.34-1.82 3.697-5.093 5.81-9.093 7.101-13.6v-.002c.925-3.231 1.663-7.04 1.171-10.22-1.86-12.036-8.05-20.062-15.172-27.668a52.121 52.121 0 0 0-.826-.862c-4.338-4.429-9.314-7.922-14.67-9.828a32.736 32.736 0 0 0-4.829-.329c-5.198.028-10.886 1.26-17.39 4.033a73.876 73.876 0 0 0-6.688 3.23 62.014 62.014 0 0 0-5.804 5.187c-.05.052-.102.102-.151.154-5.322 5.422-9.618 11.492-12.777 17.168-3.4 6.11-5.496 11.955-6.265 17.535-.19 1.382-.3 2.75-.328 4.098-.028 1.382.052 2.73.228 4.066.66 4.965 2.7 9.72 5.878 15.029.789 1.318 1.505 2.678 2.207 4.026l.272.318c7.788 7.863 9.78 8.948 18.87 12.94.778.342 1.638.67 2.557.984a45.24 45.24 0 0 0 5.625-.09Z"/><path fill="url(#k)" d="M91.764 43.451c-1.861-12.037-8.051-20.062-15.172-27.668a51.712 51.712 0 0 0-.826-.863 113.447 113.447 0 0 0-4.608-1.057c-.998-.21-2.07-.43-3.223-.661-5.72-1.148-10.782-2.034-14.378-2.099-7.672-.138-19.144 2.363-27.17 6.11l-.152.154c-5.32 5.42-9.618 11.49-12.776 17.166-3.4 6.11-5.496 11.955-6.266 17.536a42.865 42.865 0 0 0 3.258 12.42 43.586 43.586 0 0 0 5.009 8.708c10.096 13.636 20.993 18.21 27.043 20.242a39.085 39.085 0 0 0 5.094-.779c7.171-1.575 13.81-5.042 19.954-9.166a54.937 54.937 0 0 0 2.385-1.695c3.158-2.377 5.735-4.872 8.061-7.526 1.458-1.662 2.816-3.387 4.157-5.183.446-.599.893-1.206 1.339-1.82 3.698-5.092 5.81-9.093 7.102-13.6v-.002c.923-3.229 1.66-7.037 1.169-10.217Z"/><path fill="url(#l)" d="M87.768 33.353a31.803 31.803 0 0 0-1.28-3.123 16.155 16.155 0 0 0-.142-.273c-1.383-2.57-2.849-4.716-4.373-6.527a29.567 29.567 0 0 0-4.394-4.265c-3.659-2.863-7.488-4.4-11.172-5.613-7.896-2.598-18.256-2.057-29.24 2.557-10.405 4.37-16.328 9.69-19.452 14.43-3.127 4.742-4.325 9.082-6.21 13.935-1.233 3.175-2.565 5.773 4.071 14.594 3.053 4.057 6.175 7.502 9.407 10.493 4.519 4.183 9.245 7.475 14.281 10.287a48.621 48.621 0 0 0 3.357 1.72c6.432 2.968 10.056 2.557 14.409 2.237 3.197-.235 7.908-.551 12.906-2.004 3.158-2.377 5.735-4.871 8.061-7.526 1.943-2.217 3.71-4.543 5.496-7.005 3.698-5.092 5.81-9.093 7.102-13.6v-.002c.009-6.028-1.013-14.846-2.827-20.315Z"/><path fill="url(#m)" d="M53.633 17.369c-8.12-2.51-16.118 1.897-21.125 3.979-5.006 2.081-10.622 6.549-11.355 21.238-.397 7.939.985 19.306 3.827 26.975 4.519 4.182 9.245 7.474 14.281 10.286a48.578 48.578 0 0 0 3.357 1.72c4.084.085 8.702-.376 13.553-1.156 4.717-.76 10.726-1.934 15.176-3.456a62.64 62.64 0 0 0 6.647-2.68c1.943-2.218 3.71-4.544 5.496-7.005 3.698-5.093 5.81-9.093 7.102-13.6v-.002c-1.423-4.005-3.512-8.25-9.058-15.491-9.89-12.913-19.781-18.299-27.9-20.808Z"/><mask id="n" width="70" height="66" x="21" y="16" maskUnits="userSpaceOnUse" style="mask-type:luminance"><path fill="#fff" d="M53.633 17.369c-8.12-2.51-16.118 1.897-21.125 3.979-5.006 2.081-10.622 6.549-11.355 21.238-.397 7.939.985 19.306 3.827 26.975 4.519 4.182 9.245 7.474 14.281 10.286a48.578 48.578 0 0 0 3.357 1.72c4.084.085 8.702-.376 13.553-1.156 4.717-.76 10.726-1.934 15.176-3.456a62.64 62.64 0 0 0 6.647-2.68c1.943-2.218 3.71-4.544 5.496-7.005 3.698-5.093 5.81-9.093 7.102-13.6v-.002c-1.423-4.005-3.512-8.25-9.058-15.491-9.89-12.913-19.781-18.299-27.9-20.808Z"/></mask><g mask="url(#n)"><path fill="url(#o)" d="M39.978 80.72c4.034-4.977 3.816-11.85-.485-15.354-4.302-3.504-11.059-2.31-15.093 2.667-4.034 4.978-3.816 11.851.486 15.355 4.3 3.503 11.058 2.308 15.092-2.667Z"/></g><mask id="p" width="70" height="66" x="21" y="16" maskUnits="userSpaceOnUse" style="mask-type:luminance"><path fill="#fff" d="M53.633 17.369c-8.12-2.51-16.118 1.897-21.125 3.979-5.006 2.081-10.622 6.549-11.355 21.238-.397 7.939.985 19.306 3.827 26.975 4.519 4.182 9.245 7.474 14.281 10.286a48.578 48.578 0 0 0 3.357 1.72c4.084.085 8.702-.376 13.553-1.156 4.717-.76 10.726-1.934 15.176-3.456a62.64 62.64 0 0 0 6.647-2.68c1.943-2.218 3.71-4.544 5.496-7.005 3.698-5.093 5.81-9.093 7.102-13.6v-.002c-1.423-4.005-3.512-8.25-9.058-15.491-9.89-12.913-19.781-18.299-27.9-20.808Z"/></mask><g mask="url(#p)"><path fill="url(#q)" d="M70.248 17.706C63.516-.134 42.868-8.836 24.128-1.729 5.388 5.378-4.347 25.598 2.384 43.438c6.731 17.84 27.38 26.543 46.12 19.436 18.74-7.107 28.475-27.327 21.744-45.168Z"/></g><path fill="#FEA500" d="M24.982 69.56c.048.128.095.258.143.383 2.408 6.288 5.884 9.342 9.706 10.526 2.249.698 4.884 1.036 7.79 1.096a48.554 48.554 0 0 1-3.357-1.72c-5.037-2.812-9.765-6.102-14.282-10.284Z"/><path fill="url(#r)" d="M69.934 81.801c2.906-.845 5.91-2.072 8.768-3.892 4.472-2.847 6.986-6.135 8.501-9.53-2.117 1.917-5.142 3.968-9.208 5.896-2.324 2.652-4.9 5.149-8.061 7.526Z"/><path fill="url(#s)" d="M60.322 24.032c-5.833-3.075-16.063 1.95-25.679 8.512s-9.288 12.766-6.752 18.562c2.557 5.847 6.343 7.693 12.48 14.975 6.14 7.282 9.31 14.46 21.076 11.384C73.213 74.39 76.281 52.44 75.668 42.698c-.614-9.743-9.514-15.59-15.346-18.666Z"/><mask id="t" width="50" height="56" x="26" y="23" maskUnits="userSpaceOnUse" style="mask-type:luminance"><path fill="#fff" d="M60.322 24.032c-5.833-3.075-16.063 1.95-25.679 8.512s-9.288 12.766-6.752 18.562c2.557 5.847 6.343 7.693 12.48 14.975 6.14 7.282 9.31 14.46 21.076 11.384C73.213 74.39 76.281 52.44 75.668 42.698c-.614-9.743-9.514-15.59-15.346-18.666Z"/></mask><g mask="url(#t)"><path fill="url(#u)" d="M39.117 66.08c18.489 0 33.477-15.243 33.477-34.047 0-18.803-14.988-34.047-33.477-34.047-18.488 0-33.476 15.244-33.476 34.047 0 18.804 14.988 34.047 33.476 34.047Z"/></g><mask id="v" width="50" height="56" x="26" y="23" maskUnits="userSpaceOnUse" style="mask-type:luminance"><path fill="#fff" d="M60.322 24.032c-5.833-3.075-16.063 1.95-25.679 8.512s-9.288 12.766-6.752 18.562c2.557 5.847 6.343 7.693 12.48 14.975 6.14 7.282 9.31 14.46 21.076 11.384C73.213 74.39 76.281 52.44 75.668 42.698c-.614-9.743-9.514-15.59-15.346-18.666Z"/></mask><g mask="url(#v)"><path fill="url(#w)" d="M61.097 56.04c8.956 0 16.217-7.28 16.217-16.258 0-8.98-7.26-16.259-16.217-16.259-8.957 0-16.218 7.28-16.218 16.259s7.26 16.258 16.218 16.258Z"/></g><path fill="#000" d="M149.998 34.585h-7.015c-4.224 0-9.258-1.55-9.258-8.933V4.34h4.092l-.002.19-.115 21.245c0 3.516 1.596 5.084 5.173 5.084h7.125v3.726ZM113.041 34.585h-4.092V4.34h9.78c6.85 0 10.778 3.938 10.778 10.805 0 6.463-4.332 10.805-10.778 10.805h-5.688v8.635Zm.003-12.234h5.228c2.622 0 7.022-.936 7.022-7.206 0-4.777-2.363-7.198-7.022-7.198h-5.228v14.404ZM93.273 35.058c-6.657 0-10.792-3.845-10.792-10.035V4.34h4.092v20.709c0 5.12 3.643 6.196 6.7 6.196 3.058 0 6.702-1.074 6.702-6.197V4.34h4.092v20.683c0 6.19-4.136 10.035-10.793 10.035ZM106.432 44.62c0 1.02-.159 1.92-.476 2.697-.317.778-.789 1.384-1.417 1.82-.625.435-1.41.653-2.354.653-.944 0-1.731-.218-2.361-.653-.63-.436-1.102-1.044-1.416-1.826-.313-.783-.47-1.684-.47-2.704 0-1.02.161-1.915.482-2.685.324-.767.8-1.37 1.436-1.804.636-.435 1.426-.653 2.37-.653.905 0 1.673.207 2.298.624.625.418 1.1 1.01 1.423 1.777.324.767.485 1.686.485 2.754Zm-7.639 0c0 .89.121 1.669.365 2.339.243.67.616 1.188 1.121 1.558.504.37 1.145.555 1.921.555s1.41-.186 1.906-.555c.496-.37.862-.888 1.099-1.552.238-.666.358-1.448.358-2.345 0-1.386-.278-2.47-.834-3.253-.556-.782-1.391-1.174-2.501-1.174-.776 0-1.419.186-1.927.556-.51.37-.889.888-1.137 1.552-.246.665-.37 1.437-.37 2.319ZM110.888 42.035c.897 0 1.598.32 2.102.962.505.642.757 1.6.757 2.873 0 1.273-.261 2.245-.785 2.915-.524.67-1.233 1.005-2.13 1.005-.617 0-1.113-.14-1.486-.421a2.58 2.58 0 0 1-.825-1.012h-.056c.008.245.021.502.034.774.015.273.022.53.022.774v3.063h-.8V42.176h.629l.125 1.405h.043c.177-.413.458-.772.841-1.081.384-.311.893-.465 1.529-.465Zm-.112.703c-.766 0-1.335.259-1.703.78-.369.52-.555 1.27-.555 2.254v.14c0 1.069.177 1.866.533 2.396.356.53.912.793 1.669.793.709 0 1.252-.285 1.625-.856.373-.57.561-1.368.561-2.388 0-1.003-.177-1.773-.533-2.311-.355-.54-.888-.808-1.597-.808ZM117.896 42.035c.598 0 1.102.147 1.514.443.412.296.72.7.925 1.215.205.514.308 1.105.308 1.77v.562h-4.989c.009.984.226 1.74.651 2.27.425.53 1.035.793 1.829.793a5.15 5.15 0 0 0 1.149-.113 5.006 5.006 0 0 0 1.065-.393v.73c-.345.17-.692.29-1.037.366a5.694 5.694 0 0 1-1.206.112c-1.056 0-1.867-.341-2.432-1.026-.564-.683-.847-1.617-.847-2.797 0-.759.121-1.435.365-2.03.243-.594.59-1.061 1.043-1.398.453-.335 1.007-.504 1.662-.504Zm0 .675c-.636 0-1.149.229-1.541.687-.393.458-.621 1.109-.688 1.954h4.148c-.008-.787-.168-1.425-.476-1.91-.309-.487-.789-.732-1.443-.732ZM125.013 42.035c.804 0 1.416.22 1.837.66.42.44.629 1.128.629 2.064v4.889h-.784v-4.833c0-.711-.153-1.237-.455-1.574-.304-.337-.746-.505-1.324-.505-1.522 0-2.285.946-2.285 2.837v4.075h-.785v-7.472h.629l.125 1.292h.056c.188-.413.479-.754.876-1.027.396-.272.894-.406 1.481-.406ZM135.666 49.65l-1.233-3.457h-3.896l-1.233 3.456h-.841l3.672-10.06h.784l3.588 10.06h-.841Zm-1.487-4.188-1.234-3.624a14.662 14.662 0 0 0-.196-.618c-.093-.281-.172-.53-.237-.744a18.716 18.716 0 0 1-.436 1.377l-1.261 3.612h3.364v-.003ZM139.812 42.035c.541 0 .996.113 1.358.337.364.225.657.538.882.943h.056l.112-1.14h.645v7.715c0 .983-.24 1.75-.716 2.304-.477.553-1.257.828-2.34.828-.523 0-.987-.048-1.395-.14a5.69 5.69 0 0 1-1.099-.366v-.774c.328.177.707.32 1.143.428.433.108.899.162 1.395.162.756 0 1.317-.216 1.681-.646.365-.43.548-1.016.548-1.755v-1.025c0-.196.009-.389.028-.577h-.043c-.412.975-1.192 1.461-2.342 1.461-.897 0-1.599-.328-2.108-.983-.509-.655-.763-1.602-.763-2.838 0-1.208.254-2.166.763-2.873.511-.708 1.242-1.06 2.195-1.06Zm.112.703c-.748 0-1.309.283-1.682.85-.373.565-.561 1.365-.561 2.394 0 1.02.184 1.798.555 2.332.368.534.903.802 1.604.802.569 0 1.017-.125 1.345-.378.328-.253.558-.599.694-1.04.136-.44.203-.94.203-1.504v-.478c0-.955-.164-1.69-.492-2.205-.325-.516-.882-.773-1.666-.773ZM146.26 39.68v.525h-.932v2.899h-.573v-2.899h-.923v-.525h2.428Zm3.725 0v3.424h-.593v-1.985a12.845 12.845 0 0 1 .028-.653h-.038l-.912 2.635h-.485l-.884-2.634h-.028l.019.35c.006.13.009.214.009.253V43.1h-.552v-3.423h.853l.863 2.637.882-2.637h.838v.002Z"/><defs><linearGradient id="j" x1="22.047" x2="78.902" y1="25.508" y2="77.894" gradientUnits="userSpaceOnUse"><stop stop-color="#F2582F"/><stop offset=".398" stop-color="#FC7C30"/><stop offset=".994" stop-color="#FFBE15"/></linearGradient><linearGradient id="a" x1="7.979" x2="90.258" y1="25.188" y2="74.831" gradientUnits="userSpaceOnUse"><stop stop-color="#F26BC7"/><stop offset=".481" stop-color="#FFA97F"/><stop offset=".822" stop-color="#FFC358"/><stop offset=".998" stop-color="#F69A5C"/></linearGradient><linearGradient id="c" x1="52.894" x2="1.645" y1="-3.049" y2="51.894" gradientUnits="userSpaceOnUse"><stop offset=".028" stop-color="#FA916A"/><stop offset=".264" stop-color="#F47896"/><stop offset=".993" stop-color="#F5817D"/></linearGradient><linearGradient id="d" x1="81.239" x2="22.796" y1="15.602" y2="88.175" gradientUnits="userSpaceOnUse"><stop offset=".003" stop-color="#FFE272" stop-opacity=".5"/><stop offset=".412" stop-color="#FFE340"/><stop offset=".75" stop-color="#FF8C5A"/><stop offset="1" stop-color="#F8806F"/></linearGradient><linearGradient id="e" x1="83.158" x2="90.651" y1="15.982" y2="70.695" gradientUnits="userSpaceOnUse"><stop offset=".025" stop-color="#FFBF3A"/><stop offset=".487" stop-color="#FFDE78"/><stop offset="1" stop-color="#FFD055"/></linearGradient><linearGradient id="f" x1="5.928" x2="42.124" y1="59.834" y2="99.917" gradientUnits="userSpaceOnUse"><stop stop-color="#F66929"/><stop offset=".473" stop-color="#FD7F2F"/><stop offset="1" stop-color="#FF9F2E"/></linearGradient><linearGradient id="g" x1="26.605" x2="75.874" y1="11.931" y2="9.31" gradientUnits="userSpaceOnUse"><stop offset=".023" stop-color="#F2552F"/><stop offset=".995" stop-color="#FD7E2F"/></linearGradient><linearGradient id="h" x1="50.394" x2="86.678" y1="95.262" y2="74.207" gradientUnits="userSpaceOnUse"><stop stop-color="#FF8533"/><stop offset=".484" stop-color="#FF9C32"/><stop offset=".992" stop-color="#FFB934"/></linearGradient><linearGradient id="i" x1="79.995" x2="92.934" y1="75.377" y2="54.621" gradientUnits="userSpaceOnUse"><stop stop-color="#FF9F06"/><stop offset=".992" stop-color="#FFAD02"/></linearGradient><linearGradient id="b" x1="66.211" x2="91.146" y1="96.986" y2="65.586" gradientUnits="userSpaceOnUse"><stop offset=".015" stop-color="#FF720C"/><stop offset=".515" stop-color="#FFC100"/><stop offset=".993" stop-color="#FED899"/></linearGradient><linearGradient id="k" x1="24.309" x2="76.413" y1="23.178" y2="75.228" gradientUnits="userSpaceOnUse"><stop stop-color="#EB2E1D"/><stop offset=".425" stop-color="#FF800A"/><stop offset=".697" stop-color="#FFA102"/><stop offset=".994" stop-color="#FFCA37"/></linearGradient><linearGradient id="l" x1="34.495" x2="73.132" y1="17.394" y2="81.233" gradientUnits="userSpaceOnUse"><stop offset=".023" stop-color="#F75002"/><stop offset=".475" stop-color="#FF9F00"/><stop offset=".987" stop-color="#FFD552"/></linearGradient><linearGradient id="m" x1="39.59" x2="66.073" y1="18.703" y2="80.695" gradientUnits="userSpaceOnUse"><stop offset=".022" stop-color="#FF8700"/><stop offset=".371" stop-color="#FFB000"/><stop offset=".658" stop-color="#FFB808"/><stop offset=".996" stop-color="#FFCC3A"/></linearGradient><linearGradient id="s" x1="43.453" x2="66.223" y1="27.96" y2="75.805" gradientUnits="userSpaceOnUse"><stop offset=".023" stop-color="#FFB100"/><stop offset=".51" stop-color="#FEB705"/><stop offset="1" stop-color="#FFC72F"/></linearGradient><linearGradient id="r" x1="70.165" x2="87.618" y1="82.118" y2="69.409" gradientUnits="userSpaceOnUse"><stop stop-color="#FEA512"/><stop offset=".992" stop-color="#FFAB10"/></linearGradient><radialGradient id="q" cx="0" cy="0" r="1" gradientTransform="matrix(33.93048 -12.86601 12.24115 32.28257 36.313 30.569)" gradientUnits="userSpaceOnUse"><stop stop-color="#FE6900"/><stop offset=".233" stop-color="#FE6D01" stop-opacity=".767"/><stop offset=".446" stop-color="#FE7803" stop-opacity=".554"/><stop offset=".651" stop-color="#FE8A07" stop-opacity=".349"/><stop offset=".85" stop-color="#FFA40D" stop-opacity=".15"/><stop offset="1" stop-color="#FFBD12" stop-opacity="0"/></radialGradient><radialGradient id="o" cx="0" cy="0" r="1" gradientTransform="rotate(39.161 -88.448 82.359) scale(10.0443 11.5993)" gradientUnits="userSpaceOnUse"><stop offset=".015" stop-color="#FFC72F"/><stop offset="1" stop-color="#FFC731" stop-opacity="0"/></radialGradient><radialGradient id="u" cx="0" cy="0" r="1" gradientTransform="matrix(33.4765 0 0 34.0479 39.108 32.032)" gradientUnits="userSpaceOnUse"><stop stop-color="#FF7D00"/><stop offset=".264" stop-color="#FF8101" stop-opacity=".736"/><stop offset=".506" stop-color="#FF8C04" stop-opacity=".494"/><stop offset=".739" stop-color="#FF9E09" stop-opacity=".261"/><stop offset=".965" stop-color="#FFB811" stop-opacity=".035"/><stop offset="1" stop-color="#FFBD12" stop-opacity="0"/></radialGradient><radialGradient id="w" cx="0" cy="0" r="1" gradientTransform="matrix(16.2171 0 0 16.2577 61.085 39.783)" gradientUnits="userSpaceOnUse"><stop stop-color="#FFB300"/><stop offset=".029" stop-color="#FFB301" stop-opacity=".972"/><stop offset="1" stop-color="#FFBD12" stop-opacity="0"/></radialGradient></defs></svg>