<svg xmlns="http://www.w3.org/2000/svg" width="255" height="78" fill="none"><g clip-path="url(#a)"><mask id="b" width="60" height="78" x="195" y="0" maskUnits="userSpaceOnUse" style="mask-type:luminance"><path fill="#fff" d="M195.814.934h58.254v76.133h-58.254V.934Z"/></mask><g mask="url(#b)"><path fill="#EE2E30" d="M255.454 77.067h-27.677c-15.075 0-31.08-10.47-31.109-38.757C196.648 15.145 211.2.934 227.777.934h27.677v24.661h-20.193c-3.616 0-12.137 1.42-12.137 13.201 0 11.763 8.521 13.512 12.137 13.512h20.193v24.76Z"/></g><mask id="c" width="90" height="78" x="0" y="0" maskUnits="userSpaceOnUse" style="mask-type:luminance"><path fill="#fff" d="M.93.934H89.1v76.133H.93V.934Z"/></mask><g mask="url(#c)"><path fill="#EE2E30" d="M69.973 52.901c9.752 0 12.641-5.502 12.641-12.277 0-6.776-2.889-12.258-12.641-12.258H56.294v-6.562h30.634V.934H29.18v27.432H13.513C3.75 28.366.93 33.848.93 40.624.93 47.399 3.75 52.9 13.513 52.9h15.336v24.166h27.445V52.901h13.679Z"/></g><path fill="#EE2E30" d="m155.438 77.067 12.079-54.835v54.835h24.177V.934h-25.612c-15.395 0-16.839 7.747-18.933 17.06l-5.061 24.71-5.06-24.71C134.944 8.68 133.499.934 118.095.934H92.482v76.133h24.188V22.232l12.069 54.835h26.699Z"/></g><defs><clipPath id="a"><path fill="#fff" d="M0 0h255v78H0z"/></clipPath></defs></svg>