<svg xmlns="http://www.w3.org/2000/svg" width="20" height="20" fill="none"><path fill="#393535" d="M16.83 20h-.27c-2.97-.33-5.83-1.34-8.34-2.96a18.927 18.927 0 0 1-5.81-5.77A19.018 19.018 0 0 1-.55 2.93c-.04-.35 0-.71.1-1.05.11-.34.28-.65.52-.92C.29.68.57.45.89.29A2.4 2.4 0 0 1 1.9 0h2.99c.64 0 1.27.23 1.76.65.49.42.81 1 .91 1.63.11.82.31 1.62.61 2.39.18.49.22 1.01.11 1.52-.11.5-.36.96-.73 1.33l-.7.7c1.1 1.73 2.58 3.2 4.33 4.28l.7-.68c.37-.36.83-.62 1.34-.73.5-.1 1.03-.07 1.52.11.77.29 1.58.5 2.4.61.65.1 1.24.43 1.66.93.42.5.65 1.13.63 1.79v2.74c0 .72-.28 1.4-.79 1.91-.5.5-1.19.79-1.91.79l.1.03ZM4.89 1.7H2.14c-.13.01-.26.04-.38.11-.12.06-.23.14-.32.24a1.022 1.022 0 0 0-.23.71c.28 2.7 1.19 5.29 2.66 7.57a17.11 17.11 0 0 0 5.26 5.25c2.3 1.48 4.9 2.4 7.62 2.7a.952.952 0 0 0 .76-.29c.19-.18.29-.43.29-.69v-2.74a.96.96 0 0 0-.23-.65.966.966 0 0 0-.62-.34c-.95-.13-1.88-.36-2.78-.69a1.02 1.02 0 0 0-.55-.04c-.18.04-.35.13-.49.26l-1.15 1.14c-.13.13-.31.22-.49.24a.837.837 0 0 1-.54-.1 15.5 15.5 0 0 1-5.87-5.83.911.911 0 0 1-.11-.54c.03-.19.12-.36.25-.49l1.15-1.14a.992.992 0 0 0 .22-1.03c-.34-.9-.57-1.83-.69-2.77-.03-.25-.15-.47-.34-.64a.954.954 0 0 0-.67-.24Z"/><path fill="#F6F2EC" fill-rule="evenodd" d="m6.85 8.22.7-.7c.37-.37.62-.83.73-1.33.11-.51.07-1.03-.11-1.52-.3-.77-.5-1.57-.61-2.39-.1-.63-.42-1.21-.91-1.63C6.16.23 5.53 0 4.89 0H1.9C1.55.02 1.2.12.89.29.57.45.29.68.07.96c-.24.27-.41.58-.52.92-.1.34-.14.7-.1 1.05.32 2.98 1.33 5.83 2.96 8.34 1.49 2.32 3.47 4.29 5.81 5.77 2.51 1.62 5.37 2.63 8.34 2.96h.27l-.1-.03H16.85c.68-.03 1.31-.31 1.79-.79.51-.51.79-1.19.79-1.91v-2.74c.02-.66-.21-1.29-.63-1.79-.42-.5-1.01-.83-1.66-.93-.82-.11-1.63-.32-2.4-.61-.49-.18-1.02-.21-1.52-.11-.51.11-.97.37-1.34.73l-.7.68a13.614 13.614 0 0 1-4.33-4.28Zm9.88 11.58v-.03q.25 0 .5-.05.23-.05.46-.14.23-.1.44-.24.2-.13.37-.3.18-.18.32-.39.13-.2.22-.42.1-.23.15-.48.04-.23.04-.48v-2.75q.01-.22-.03-.44-.03-.22-.11-.44-.07-.21-.18-.4-.11-.2-.26-.38-.15-.17-.32-.3-.17-.15-.37-.26-.22-.13-.45-.2-.19-.06-.4-.1-.66-.09-1.31-.25-.57-.15-1.13-.36-.35-.13-.7-.15-.35-.03-.71.05t-.68.25q-.3.17-.56.42l-.81.8-.14-.09q-.68-.42-1.31-.92-.59-.47-1.13-1-.57-.57-1.07-1.2-.47-.59-.88-1.22l-.08-.14.81-.81q.26-.26.43-.58.16-.3.24-.66.08-.36.05-.72-.02-.34-.15-.68-.25-.65-.41-1.33-.13-.54-.21-1.1-.03-.22-.1-.42-.07-.21-.18-.41-.11-.19-.24-.36Q6.69.95 6.52.8 6.35.66 6.17.55q-.2-.12-.41-.2-.21-.08-.43-.11Q5.11.2 4.89.19H1.91q-.25.03-.48.09Q1.2.35.98.47.78.57.6.71q-.21.17-.38.38-.17.19-.29.41-.11.21-.19.44-.07.24-.1.49-.02.24.01.48Q-.24 4 0 5.06q.25 1.09.62 2.15.36 1 .82 1.95.51 1.03 1.14 2 .53.84 1.15 1.6.66.82 1.41 1.57.68.68 1.42 1.28.84.68 1.77 1.27.9.58 1.87 1.06 1.01.5 2.08.88 1.03.36 2.09.6 1.09.25 2.2.38h.16ZM4.88 1.5H2.13q-.12.01-.24.04-.11.03-.22.09-.11.05-.21.13-.09.07-.17.16-.06.08-.11.16-.07.11-.11.24-.04.11-.05.23-.02.11-.01.23.11 1.05.35 2.07.22.97.55 1.92.33.94.76 1.84.46.94 1.03 1.83.49.77 1.06 1.48.61.77 1.31 1.47.65.65 1.37 1.22.76.61 1.59 1.14.83.53 1.71.97.96.48 1.98.84.96.34 1.95.57 1.01.23 2.05.35h.01q.13.01.26-.01.12-.02.24-.06.12-.05.23-.12.11-.07.19-.15h.01v-.01q.08-.08.14-.18.07-.09.11-.2.05-.11.07-.22.02-.12.02-.23V14.42q-.02-.14-.07-.27-.03-.11-.09-.2-.05-.09-.12-.18-.07-.08-.15-.14-.09-.07-.18-.13-.1-.05-.2-.08t-.21-.05q-.74-.1-1.45-.28-.65-.16-1.29-.4-.16-.05-.32-.07-.17-.01-.34.03-.17.03-.32.11-.14.08-.27.2l-1.15 1.14q-.07.07-.16.12-.1.05-.22.06-.11.02-.21 0-.11-.02-.2-.07-.92-.52-1.75-1.15-.81-.62-1.54-1.34-.76-.75-1.4-1.6-.6-.79-1.1-1.67-.06-.1-.08-.21-.02-.1-.01-.2.02-.11.06-.21.05-.09.13-.17l1.15-1.14q.12-.13.2-.28.08-.14.12-.31.03-.16.02-.33-.02-.16-.08-.33-.23-.63-.4-1.28-.18-.71-.27-1.44-.01-.08-.03-.16-.04-.13-.1-.25-.05-.1-.12-.18-.07-.09-.16-.17-.08-.07-.17-.12-.1-.06-.2-.1-.11-.04-.21-.06Q5 1.5 4.88 1.5Zm.01.2H2.14c-.13.01-.26.04-.38.11-.12.06-.23.14-.32.24a1.022 1.022 0 0 0-.23.71c.28 2.7 1.19 5.29 2.66 7.57a17.11 17.11 0 0 0 5.26 5.25c2.3 1.48 4.9 2.4 7.62 2.7a.952.952 0 0 0 .76-.29c.19-.18.29-.43.29-.69v-2.74a.96.96 0 0 0-.23-.65.966.966 0 0 0-.62-.34c-.95-.13-1.88-.36-2.78-.69a1.02 1.02 0 0 0-.55-.04c-.18.04-.35.13-.49.26l-1.15 1.14c-.13.13-.31.22-.49.24a.837.837 0 0 1-.54-.1 15.5 15.5 0 0 1-5.87-5.83.911.911 0 0 1-.11-.54c.03-.19.12-.36.25-.49l1.15-1.14a.992.992 0 0 0 .22-1.03c-.34-.9-.57-1.83-.69-2.77-.03-.25-.15-.47-.34-.64a.954.954 0 0 0-.67-.24Z"/></svg>